<?xml version="1.0" standalone="no"?>
<!DOCTYPE svg PUBLIC "-//W3C//DTD SVG 1.1//EN" "http://www.w3.org/Graphics/SVG/1.1/DTD/svg11.dtd" >
<svg xmlns="http://www.w3.org/2000/svg">
<metadata></metadata>
<defs>
<font id="plantin_stdbold_italic" horiz-adv-x="681" >
<font-face units-per-em="2048" ascent="1423" descent="-625" />
<missing-glyph horiz-adv-x="569" />
<glyph horiz-adv-x="2048" />
<glyph horiz-adv-x="2048" />
<glyph unicode="&#xd;" horiz-adv-x="2048" />
<glyph unicode=" "  horiz-adv-x="569" />
<glyph unicode="&#x09;" horiz-adv-x="569" />
<glyph unicode="&#xa0;" horiz-adv-x="569" />
<glyph unicode="!" horiz-adv-x="747" d="M121 143q0 71 48.5 119.5t119.5 48.5t120.5 -49t49.5 -119q0 -71 -49.5 -120.5t-120.5 -49.5q-70 0 -119 49.5t-49 120.5zM354 453l156 858q12 69 56 91.5t126 22.5q94 0 123 -48t-8 -120l-375 -804h-78z" />
<glyph unicode="&#x22;" horiz-adv-x="1136" d="M305 1243q0 66 42.5 110t105.5 44t105 -44t42 -110q0 -51 -20 -129l-103 -383h-49l-102 383q-21 82 -21 129zM788 1243q0 66 42.5 110t105.5 44t105 -44t42 -110q0 -51 -20 -129l-102 -383h-50l-102 383q-21 82 -21 129z" />
<glyph unicode="#" horiz-adv-x="1368" d="M150 342v188h208l62 304h-270v190h307l84 383h188l-82 -383h354l82 383h189l-82 -383h170v-190h-207l-61 -304h268v-188h-305l-82 -379h-191l84 379h-358l-80 -379h-190l79 379h-167zM547 532h356l62 302h-355z" />
<glyph unicode="$" horiz-adv-x="1110" d="M74 352q0 43 11 59.5t40 16.5h68q40 0 64 -14t24 -31q0 -14 -5.5 -48t-5.5 -50q0 -76 28.5 -119.5t96.5 -69.5l160 498q-147 110 -204.5 196.5t-57.5 186.5q0 155 129 265t311 110l64 -4l24 77h111l-31 -96q77 -20 136 -60.5t90.5 -88.5t47 -94.5t15.5 -88.5 q0 -34 -23 -46.5t-88 -12.5q-53 0 -69.5 8.5t-16.5 36.5q0 20 2 52.5t2.5 48.5t-5 41t-18 40.5t-38 34t-64.5 35.5l-141 -434q156 -120 216.5 -206t60.5 -181q0 -86 -40.5 -167.5t-109.5 -143.5t-171.5 -97.5t-217.5 -30.5l-51 -159h-111l55 176q-136 34 -212 129.5 t-76 230.5zM500 76q124 0 201 69.5t77 176.5q0 59 -29 105t-104 99zM522 1067q0 -52 27 -96t94 -99l125 385q-119 0 -182.5 -52t-63.5 -138z" />
<glyph unicode="%" horiz-adv-x="1898" d="M195 946q0 201 130 340t314 139q138 0 213.5 -65.5t75.5 -194.5q0 -126 -53 -234.5t-157.5 -177.5t-238.5 -69q-284 0 -284 262zM244 -70l1341 1495h197l-1331 -1495h-207zM436 811q0 -63 56 -63q19 0 29.5 5.5t35.5 30.5q35 35 82 245t47 265q0 31 -13 45.5t-44 14.5 q-35 0 -66 -31q-24 -24 -75.5 -236t-51.5 -276zM1124 225q0 201 130.5 340.5t314.5 139.5q138 0 213.5 -65.5t75.5 -195.5q0 -126 -53 -234.5t-157.5 -177.5t-238.5 -69q-285 0 -285 262zM1366 90q0 -63 55 -63q19 0 30 5.5t36 30.5q35 35 82 245t47 265q0 31 -13 45.5 t-44 14.5q-35 0 -66 -31q-24 -24 -75.5 -236t-51.5 -276z" />
<glyph unicode="&#x26;" horiz-adv-x="1961" d="M137 459q0 138 99 251t284 162q-104 67 -104 193q0 154 160 257t434 103q161 0 263.5 -60t102.5 -155q0 -51 -37 -83.5t-94 -32.5q-119 0 -137 112q-11 68 -33 90.5t-96 22.5q-112 0 -191 -74.5t-79 -179.5q0 -120 127 -164l-33 -76q-153 -2 -245.5 -83t-92.5 -214 q0 -118 74 -207.5t197 -135.5t274 -46q203 0 330.5 91.5t127.5 238.5q0 114 -83 190t-207 76q-61 0 -100.5 -26t-39.5 -66q0 -27 18.5 -42.5t45 -22.5t53.5 -16t45.5 -33t18.5 -64q0 -41 -33 -72t-86 -31q-69 0 -119.5 61t-50.5 146q0 164 118 284t279 120q59 0 118.5 -20 t106 -48.5t89 -57.5t82.5 -49t71 -20q33 0 57.5 26t24.5 60q0 38 -22.5 63t-54 37.5t-63.5 24.5t-54.5 35.5t-22.5 60.5q0 41 34 72t81 31q88 0 148 -79t60 -194q0 -143 -91.5 -246.5t-217.5 -103.5q-65 0 -131 29q21 -58 21 -129q0 -101 -51.5 -190.5t-145.5 -157 t-237 -107t-314 -39.5q-158 0 -289.5 42.5t-214.5 112t-128.5 156t-45.5 177.5z" />
<glyph unicode="'" horiz-adv-x="569" d="M248 1243q0 66 42 110t105 44t105.5 -44t42.5 -110q0 -47 -21 -129l-102 -383h-49l-103 383q-20 78 -20 129z" />
<glyph unicode="(" horiz-adv-x="892" d="M209 332q0 262 119 499t326 396t456 198l-33 -106q-94 -33 -181.5 -114.5t-153.5 -188.5t-121 -232.5t-90.5 -252.5t-54.5 -243t-19 -208q0 -228 114 -373l-30 -100q-161 132 -246.5 318.5t-85.5 406.5z" />
<glyph unicode=")" horiz-adv-x="892" d="M-199 -393l33 106q112 40 214 147t174 245t126 294t80.5 299t26.5 254q0 108 -30 205.5t-85 167.5l31 100q161 -132 246 -318.5t85 -406.5q0 -262 -119 -499t-326 -396t-456 -198z" />
<glyph unicode="*" horiz-adv-x="1044" d="M166 1163l53 80l297 -117l162 299l80 -28l-17 -328l332 -57v-99l-307 -79l41 -328l-92 -29l-174 275l-295 -148l-58 74l209 258z" />
<glyph unicode="+" horiz-adv-x="1366" d="M201 571v205h452v453h205v-453h453v-205h-453v-452h-205v452h-452z" />
<glyph unicode="," horiz-adv-x="745" d="M7 -365q-2 4 1 21l17 55q2 10 33.5 21t80.5 34t82 56q38 38 53 64t15 59q0 24 -13.5 43t-32.5 33.5t-37.5 31.5t-32 44.5t-13.5 64.5q0 68 47.5 115t116.5 47q82 0 136 -62t54 -156q0 -92 -39 -173t-97.5 -134.5t-127.5 -93t-129 -57t-103 -17.5q-9 0 -11 4z" />
<glyph unicode="-" horiz-adv-x="937" d="M82 324l78 251h692l-78 -251h-692z" />
<glyph unicode="." horiz-adv-x="598" d="M66 143q0 71 48.5 119.5t118.5 48.5q71 0 120.5 -49t49.5 -119q0 -71 -49.5 -120.5t-120.5 -49.5q-70 0 -118.5 49.5t-48.5 120.5z" />
<glyph unicode="/" horiz-adv-x="569" d="M72 -37l338 1462h231l-336 -1462h-233z" />
<glyph unicode="0" horiz-adv-x="1110" d="M123 428q0 93 29.5 232.5t96 296.5t150.5 241q80 80 177 124t196 44q152 0 256.5 -121t104.5 -303q0 -102 -19 -211t-54.5 -217.5t-91.5 -205.5t-125.5 -171.5t-161.5 -118t-194 -43.5q-101 0 -184.5 60t-131.5 164t-48 229zM381 233q0 -167 121 -167q24 0 45.5 8.5 t40.5 29t34.5 41t32 58t28 65t27 78t24 81t25 89t25.5 88.5q90 317 90 504q0 73 -28 116.5t-80 43.5q-29 0 -55.5 -15t-49 -46t-40.5 -64t-37 -85t-31.5 -92.5t-30.5 -101.5q-44 -149 -67.5 -234t-48.5 -206.5t-25 -190.5z" />
<glyph unicode="1" horiz-adv-x="1110" d="M141 0l23 90q182 3 246 246l204 764h-241l26 90q128 9 250.5 64t163.5 112h156l-287 -1071q-23 -85 16.5 -137.5t137.5 -67.5l-23 -90h-672z" />
<glyph unicode="2" horiz-adv-x="1110" d="M-41 0l14 66q179 170 301 278q22 19 99 84.5t136 117.5t103 95q189 183 189 354q0 95 -61 148t-169 53q-81 0 -157.5 -30.5t-167.5 -98.5l-62 61q128 116 252.5 177t274.5 61q170 0 283.5 -91t113.5 -228q0 -167 -141 -308q-62 -63 -155.5 -132t-176.5 -121.5 t-183.5 -123t-170.5 -133.5h456q85 0 113.5 16t44.5 85h92l-63 -330h-965z" />
<glyph unicode="3" horiz-adv-x="1110" d="M-37 66q0 47 20 88t56 41q26 0 63 -20t71 -44.5t87.5 -44.5t108.5 -20q70 0 128 27t94 68.5t60.5 93t34.5 97.5t10 86q0 230 -274 230h-39l33 90h69q87 0 161.5 25.5t122 66t74.5 88t27 92.5q0 72 -55.5 119t-140.5 47q-138 0 -271 -117l-32 101q89 90 199 138t227 48 q145 0 231 -66t86 -176q0 -106 -70.5 -191t-218.5 -155q164 -115 164 -295q0 -135 -90.5 -252.5t-243 -186.5t-327.5 -69q-105 0 -238 21q-66 10 -96.5 25.5t-30.5 44.5z" />
<glyph unicode="4" horiz-adv-x="1110" d="M61 399l11 170l778 797h258l-213 -797h209l-45 -170h-209l-115 -424h-282l114 424h-506zM205 569h407l156 580l-4 4z" />
<glyph unicode="5" horiz-adv-x="1110" d="M18 74q0 44 28.5 88.5t57.5 44.5q26 0 83 -31t137 -62.5t163 -31.5q129 0 215 81.5t86 201.5q0 47 -15 91.5t-52.5 89t-94.5 79.5t-147.5 60.5t-204.5 35.5l252 620h525l32 80l82 -39l-116 -262h-514l-62 -151q229 -5 381 -139t152 -332q0 -73 -23 -144t-75.5 -140.5 t-128.5 -122t-192 -84.5t-257 -32q-44 0 -87.5 3t-99.5 12t-90.5 31t-34.5 53z" />
<glyph unicode="6" horiz-adv-x="1110" d="M119 444q0 108 31.5 217.5t91 212.5t153 192.5t210 156t270 105t325.5 38.5l70 -90q-119 0 -224.5 -26t-186.5 -70.5t-149 -107.5t-116 -134t-84 -154l4 -4q115 62 211 62q146 0 251 -109.5t105 -263.5q0 -129 -73.5 -243t-196 -182.5t-260.5 -68.5q-93 0 -167.5 26.5 t-123 71t-81 106t-46.5 127t-14 138.5zM377 270q0 -99 44.5 -151.5t113.5 -52.5q53 0 98.5 44t73 106.5t47 133t27 120t7.5 71.5q0 76 -42 118.5t-123 42.5q-78 0 -158 -34q-88 -276 -88 -398z" />
<glyph unicode="7" horiz-adv-x="1110" d="M236 971l129 370h835l-778 -1366h-135l653 1141h-414q-91 0 -131 -29.5t-65 -115.5h-94z" />
<glyph unicode="8" horiz-adv-x="1110" d="M72 338q0 123 93 204.5t316 151.5q-88 90 -128 164.5t-40 147.5q0 156 128 258t323 102q172 0 286.5 -86t114.5 -215q0 -107 -86.5 -190t-263.5 -146q95 -112 137.5 -195t42.5 -157q0 -169 -143.5 -285.5t-353.5 -116.5q-185 0 -305.5 95.5t-120.5 267.5zM258 272 q0 -90 64 -148t163 -58q107 0 186 64t79 149q0 69 -55.5 158t-147.5 175q-133 -55 -211 -148.5t-78 -191.5zM541 1110q0 -14 2.5 -28t10 -30t14 -29t21.5 -32.5t24.5 -32t30.5 -37t33 -37.5t39.5 -43t41.5 -46q107 50 170 125.5t63 154.5q0 84 -66.5 142.5t-164.5 58.5 q-90 0 -154.5 -49t-64.5 -117z" />
<glyph unicode="9" horiz-adv-x="1110" d="M35 57q234 28 349.5 77t223.5 157q111 111 180 266l-4 4q-113 -61 -211 -61q-148 0 -252 109t-104 263q0 129 73 243t196 182.5t262 68.5q198 0 314 -121t116 -356q0 -101 -29 -204t-85.5 -205t-147.5 -191t-207 -158.5t-273.5 -111t-337.5 -44.5zM510 801 q0 -162 166 -162q68 0 158 35q45 150 65.5 238.5t20.5 158.5q0 96 -41 150.5t-117 54.5q-53 0 -98.5 -44.5t-72.5 -107.5t-46.5 -134t-27 -120t-7.5 -69z" />
<glyph unicode=":" horiz-adv-x="747" d="M160 143q0 71 49 119.5t119 48.5q71 0 120.5 -49t49.5 -119q0 -71 -50 -120.5t-120 -49.5t-119 49.5t-49 120.5zM352 754q0 70 49 119t119 49q71 0 120.5 -49t49.5 -119t-50 -120t-120 -50t-119 49.5t-49 120.5z" />
<glyph unicode=";" horiz-adv-x="745" d="M5 -365q-2 4 1 21l17 55q2 10 33.5 21t80.5 34t82 56q38 38 53 64t15 59q0 24 -13.5 43t-32.5 33.5t-37.5 31.5t-32 44.5t-13.5 64.5q0 68 47.5 115t116.5 47q82 0 136 -62t54 -156q0 -92 -39 -173t-97.5 -134.5t-127.5 -93t-129 -57t-103 -17.5q-9 0 -11 4zM350 786 q0 70 49 119t119 49q71 0 120.5 -49t49.5 -119t-50 -120t-120 -50t-119 49.5t-49 120.5z" />
<glyph unicode="&#x3c;" horiz-adv-x="1366" d="M201 582v188l1110 465v-227l-826 -332l826 -332v-227z" />
<glyph unicode="=" horiz-adv-x="1366" d="M201 334v205h1112v-205h-1112zM201 815v205h1112v-205h-1112z" />
<glyph unicode="&#x3e;" horiz-adv-x="1366" d="M203 117v227l825 332l-825 332v227l1110 -465v-188z" />
<glyph unicode="?" horiz-adv-x="1044" d="M119 143q0 71 48.5 119.5t119.5 48.5t120.5 -49t49.5 -119q0 -71 -49.5 -120.5t-120.5 -49.5q-70 0 -119 49.5t-49 120.5zM276 428l80 305q17 65 33.5 85t54.5 20q14 0 69 -6.5t95 -6.5q120 0 197.5 56.5t77.5 142.5q0 62 -41 106t-121 44q-55 0 -106.5 -9.5t-75.5 -9.5 q-60 0 -101 35.5t-41 87.5q0 66 56 106.5t147 40.5q163 0 279 -131t116 -317q0 -91 -36.5 -184.5t-96.5 -153.5q-115 -115 -305 -123q-89 -3 -118 -19t-48 -69h-115z" />
<glyph unicode="@" horiz-adv-x="1703" d="M82 420q0 196 70.5 366.5t193 291.5t296 190t372.5 69q310 0 500 -179.5t190 -471.5q0 -143 -45 -270t-122 -218.5t-184.5 -144.5t-228.5 -53q-92 0 -144 46t-52 126q0 48 24 129l-4 4q-164 -305 -327 -305q-74 0 -117 58.5t-43 158.5q0 129 50 261.5t124 229.5 t161.5 158.5t161.5 61.5q60 0 93.5 -36.5t42.5 -113.5h4l32 115l234 8l-199 -674q-22 -75 1 -116t71 -41q39 0 91.5 25t109 77t105 121t79.5 168t31 207q0 177 -78 315.5t-219.5 215.5t-321.5 77q-141 0 -264.5 -38t-215.5 -104t-164 -152.5t-117 -186.5t-68 -203t-23 -205 q0 -219 96 -392.5t268.5 -270.5t389.5 -97q106 0 217 29t222.5 89t205.5 167.5t145 247.5h58q-114 -283 -334 -434.5t-516 -151.5q-183 0 -341.5 63.5t-270.5 174.5t-176 268.5t-64 339.5zM715 266q0 -39 15.5 -64.5t39.5 -25.5q34 0 83 54.5t93 134t75.5 180.5t31.5 184 q0 59 -17.5 94t-48.5 35q-52 0 -118 -112.5t-110 -253.5t-44 -226z" />
<glyph unicode="A" horiz-adv-x="1449" d="M-111 0l27 96q70 34 116.5 80.5t147.5 175.5q58 76 138.5 181.5t121.5 159t92.5 118t94.5 113.5q72 82 215 250t215 251h291l-123 -1163q-2 -19 -2 -35q0 -51 22 -79q29 -36 103 -52l-27 -96h-637l16 96q108 13 147.5 68t53.5 207l10 106h-501l-93 -143q-42 -67 -42 -118 q0 -18 4 -32q18 -62 102 -88l-12 -96h-480zM500 594h422l59 582l-4 4q-115 -135 -170.5 -200.5t-145.5 -177.5t-161 -208z" />
<glyph unicode="B" horiz-adv-x="1536" d="M-18 0l26 96q96 31 146.5 98.5t78.5 170.5l201 749q10 37 10 68q0 38 -16 65q-28 50 -111 53l27 97h703q134 0 231.5 -24.5t153.5 -70t82 -102.5t26 -129q0 -137 -103 -229.5t-286 -118.5v-4q142 -40 224.5 -127.5t82.5 -198.5q0 -56 -18 -109.5t-61 -105.5t-106 -91 t-161 -63t-219 -24h-911zM565 319q-12 -46 -12 -82q1 -56 29 -88q46 -53 174 -53q143 0 245.5 97t102.5 233q0 47 -15 90.5t-47 81.5t-90 61t-135 23h-155zM688 778h186q87 0 153 27.5t102 72t53.5 93.5t17.5 100q0 102 -63.5 165.5t-210.5 63.5h-99z" />
<glyph unicode="C" horiz-adv-x="1536" d="M168 532q0 169 73.5 331t198.5 286t305.5 200t380.5 76q142 0 285 -41.5t256 -115.5l-82 -307h-119q0 173 -85 270.5t-234 97.5q-124 0 -228.5 -55t-174 -142.5t-119 -199t-71.5 -221t-22 -211.5q0 -191 93 -306.5t247 -115.5q283 0 457 385h154l-82 -338 q-159 -77 -298.5 -115.5t-305.5 -38.5q-142 0 -261.5 45t-199.5 122t-124 178.5t-44 215.5z" />
<glyph unicode="D" horiz-adv-x="1642" d="M33 0l24 96q105 51 145.5 105t78.5 196l174 656q15 57 15 101q0 132 -138 146l26 97h652q135 0 242.5 -39t174 -101t110.5 -147t61.5 -170.5t17.5 -177.5q0 -97 -25 -198.5t-83 -203.5t-141 -181.5t-209.5 -129t-278.5 -49.5h-846zM600 322q-11 -39 -11 -72q0 -52 28 -86 q46 -58 149 -58q99 0 182.5 46t140 121t96.5 173t58.5 201t18.5 205q0 94 -19 172t-58 138.5t-103.5 94t-149.5 33.5h-62z" />
<glyph unicode="E" horiz-adv-x="1515" d="M6 0l17 96q50 12 85 34.5t61.5 62.5t44 85.5t38.5 118.5l166 625q22 74 22 130q0 32 -7 56q-20 70 -114 92l15 97h1265l-65 -322h-115q-35 126 -82.5 175.5t-128.5 49.5h-370l-140 -518h185q142 0 215 35t129 129h112l-122 -463h-101q-23 120 -62.5 161.5t-131.5 41.5 h-250l-105 -381q-10 -35 -10 -65q-1 -56 35 -91q54 -53 170 -53q157 0 316.5 69t240.5 197h129l-137 -362h-1305z" />
<glyph unicode="F" horiz-adv-x="1366" d="M8 0l27 96q95 43 138.5 102.5t80.5 198.5l180 670q12 45 12 83q0 45 -18 79q-32 62 -115 71l25 97h1182l-80 -330h-109q-22 125 -70.5 179t-150.5 54h-268l-142 -522h107q145 0 228.5 37.5t138.5 128.5h98l-111 -473h-106q-11 110 -61 160.5t-150 50.5h-168l-86 -315 q-20 -72 -22 -126v-7q0 -48 32 -84q34 -38 111 -54l-13 -96h-690z" />
<glyph unicode="G" horiz-adv-x="1705" d="M174 565q0 178 79 337.5t214 274t322.5 181.5t396.5 67q160 0 319 -38.5t242 -98.5l-76 -309h-104q0 144 -96 247t-254 103q-127 0 -238 -48.5t-191 -131t-138 -189.5t-86.5 -227t-28.5 -241q0 -186 96 -305t248 -119q62 0 127.5 17t107.5 44l88 324q11 40 11 71 q0 103 -123 107l24 90h666l-25 -90q-59 -13 -89.5 -25.5t-57.5 -40t-42.5 -67t-35.5 -113.5l-92 -338q-100 -34 -246.5 -55t-278.5 -21q-162 0 -291 35t-211.5 92t-137 135.5t-77 160t-22.5 171.5z" />
<glyph unicode="H" horiz-adv-x="1728" d="M35 0l24 96q77 41 115 98t72 183l188 698q14 54 14 95q0 38 -12 65q-24 57 -92 65l27 97h618l-26 -97q-74 -12 -113.5 -55.5t-65.5 -144.5l-86 -320h533l80 295q15 49 19 83q2 14 1 29q0 19 -3 37q-6 32 -30 50.5t-67 25.5l26 97h613l-27 -97q-71 -12 -112 -56.5 t-68 -143.5l-225 -815q-11 -40 -11 -71q-1 -32 11 -54q24 -44 100 -64l-25 -96h-616l25 96q69 10 111.5 58t68.5 145l98 365h-532l-101 -371q-11 -39 -11 -71q0 -93 93 -126l-24 -96h-590z" />
<glyph unicode="I" horiz-adv-x="854" d="M0 0l27 96q80 14 129.5 70t83.5 182l194 729q14 58 14 106q0 47 -25 80t-75 37l27 97h626l-26 -97q-84 -22 -132.5 -92t-80.5 -190l-193 -721q-8 -31 -8 -58q1 -41 19 -73q32 -53 116 -70l-26 -96h-670z" />
<glyph unicode="J" horiz-adv-x="811" d="M-438 -199q0 64 43.5 109t105.5 45q69 0 107.5 -41t44.5 -90q7 -66 22 -93.5t58 -27.5q68 0 116 76.5t86 220.5l283 1055q16 59 16 103q0 47 -18 76q-35 57 -133 66l26 97h707l-27 -97q-93 -26 -147 -98.5t-98 -230.5l-254 -910q-49 -175 -158 -284q-86 -86 -197.5 -128 t-285.5 -42q-150 0 -223.5 57t-73.5 137z" />
<glyph unicode="K" horiz-adv-x="1515" d="M14 0l25 96q79 20 116 67t72 173l203 729q16 58 16 102q0 125 -131 133l25 97h672l-17 -97q-174 -32 -235 -270l-82 -311q661 370 661 500q0 35 -21 56.5t-63 24.5l25 97h467l-16 -97q-15 -3 -32 -9t-31 -12t-35 -19t-34 -21.5t-38 -27t-37 -27t-41.5 -31t-40.5 -31.5 q-244 -189 -430 -307l321 -553q48 -83 94.5 -122.5t102.5 -43.5q-3 -57 -51 -96h-385q-233 417 -296 518q-69 110 -126 178l-99 -360q-16 -56 -16 -99q-1 -40 13 -68q28 -60 124 -73l-18 -96h-662z" />
<glyph unicode="L" horiz-adv-x="1366" d="M12 0l27 96q42 10 75.5 34.5t57 62t40 77t30.5 92.5l186 699q12 57 14 107q0 3 1 6q0 46 -25 80q-26 36 -80 46l27 97h659l-27 -97q-70 -15 -110 -41.5t-68.5 -80t-56.5 -156.5l-211 -778q-5 -17 -5 -32q0 -42 38 -74q50 -42 164 -42q117 0 255 67t252 181h119 q-29 -76 -46 -118.5t-49.5 -107.5t-66.5 -118h-1200z" />
<glyph unicode="M" horiz-adv-x="2004" d="M-47 0l20 96q123 40 220 269l288 677q36 84 36 141q0 97 -105 117l16 97h506q-6 -42 -6 -106q0 -41 2 -92q6 -128 22 -222l76 -483l309 452q173 255 256 451h498l-14 -97q-47 -10 -81.5 -31t-57 -49.5t-38.5 -74.5t-25 -93.5t-17 -117.5l-72 -606q-4 -34 -4 -63 q0 -53 13 -87q20 -54 95 -82l-24 -96h-606l14 96q93 24 129 82.5t55 208.5l86 674l-4 4q-70 -111 -229 -337t-297 -445q-105 -167 -160 -283h-127q5 30 5 72q0 115 -36 325q-89 520 -106 686h-4l-264 -669q-26 -64 -36 -108q-7 -30 -7 -59q-1 -13 1 -25q4 -40 32 -70.5 t81 -55.5l-20 -96h-420z" />
<glyph unicode="N" horiz-adv-x="1665" d="M0 0l23 96q97 24 139 86t90 246l190 737q-53 82 -94 113q-32 24 -77 24q-13 0 -27 -2l26 97h439l587 -1049l168 629q16 63 20 116q1 15 1 30q0 37 -7 71q-10 48 -45.5 75.5t-93.5 30.5l27 97h442l-26 -97q-90 -42 -136 -114.5t-83 -210.5l-201 -748l108 -227h-370 l-584 1061l-172 -678q-19 -72 -19 -126q-1 -47 15 -81q34 -70 152 -80l-23 -96h-469z" />
<glyph unicode="O" horiz-adv-x="1748" d="M164 535q0 128 39.5 254.5t120 241t191.5 202.5t265.5 140t329.5 52q120 0 230 -39t197.5 -110.5t139.5 -183.5t52 -248q0 -107 -30 -213.5t-85.5 -203t-138.5 -180.5t-184 -145t-228 -96t-264 -35q-120 0 -224 32.5t-178 88t-127.5 127.5t-79.5 153t-26 163zM532 444 q0 -164 81.5 -265t217.5 -101q92 0 170.5 42t132.5 108.5t97.5 155t69.5 177t43 177.5t23.5 153.5t6.5 109.5q0 148 -79.5 233t-217.5 85q-80 0 -153 -37.5t-126.5 -99.5t-99 -142.5t-75.5 -164.5t-51 -167t-30.5 -150t-9.5 -114z" />
<glyph unicode="P" horiz-adv-x="1386" d="M-8 0l26 96q103 40 148.5 98.5t83.5 202.5l178 668q16 52 16 93q0 34 -12 62q-26 58 -125 80l27 97h743q226 0 336.5 -92.5t110.5 -247.5q0 -200 -164 -324.5t-428 -124.5q-189 0 -189 37q0 22 12.5 52t26.5 30h72q71 0 127.5 23.5t91 60.5t57 86t31 95t8.5 93 q0 102 -59.5 158.5t-181.5 56.5h-88l-258 -933q-17 -68 -17 -123v-11q2 -59 41.5 -96t114.5 -41l-14 -96h-715z" />
<glyph unicode="Q" horiz-adv-x="1748" d="M164 535q0 124 38.5 249.5t118 241t189 204.5t263 142t329.5 53q128 0 241 -39t199 -112t136.5 -186t50.5 -252q0 -146 -58.5 -290.5t-161 -262t-253.5 -198.5t-324 -99v-4q175 -75 340.5 -108t384.5 -44l-10 -37q-72 -84 -156 -134t-141 -50q-141 0 -285.5 42 t-309.5 146t-309 262q-138 88 -210 209.5t-72 266.5zM535 438q0 -160 82 -259t214 -99q70 0 133 25t111.5 68t90 101.5t71.5 123.5t54 136.5t39 138.5t25.5 131t14.5 112.5t4 84.5q0 145 -80 231.5t-211 86.5q-78 0 -149 -34.5t-125 -92.5t-100 -134.5t-77.5 -159.5 t-53.5 -167.5t-32.5 -158.5t-10.5 -134z" />
<glyph unicode="R" horiz-adv-x="1599" d="M-4 0l24 96q91 24 137 73.5t76 164.5l207 776q11 38 11 70q0 37 -15 65q-27 52 -106 55l24 97h836q100 0 179.5 -22.5t128 -57.5t81 -81.5t45 -91t12.5 -89.5q0 -148 -127.5 -253.5t-314.5 -111.5l98 -315q76 -241 189 -279l-41 -96h-359q-37 87 -74.5 199t-80.5 253.5 t-68 215.5h-190l-107 -398q-10 -38 -10 -67q0 -32 12 -53q23 -41 113 -54l-25 -96h-655zM692 764h219q79 0 141.5 20t101.5 51.5t64.5 73t35.5 81t10 79.5q0 99 -68 165t-209 66h-149z" />
<glyph unicode="S" horiz-adv-x="1280" d="M2 141l72 297h149q2 -163 97.5 -261.5t252.5 -98.5q117 0 202 64t85 153q0 47 -28 96.5t-73 95t-99 94t-108 100.5t-99 106t-73 119t-28 132q0 54 13.5 105t48.5 103.5t88.5 91t141.5 63t200 24.5q148 0 263 -30.5t249 -104.5l-60 -266h-131q-3 129 -83.5 212t-204.5 83 q-87 0 -152.5 -47t-65.5 -121q0 -43 28.5 -92t74.5 -96.5t102 -98.5t111.5 -107.5t101.5 -114t74.5 -126t28.5 -137.5q0 -189 -145.5 -298.5t-452.5 -109.5q-161 0 -312 44t-268 126z" />
<glyph unicode="T" horiz-adv-x="1492" d="M203 1061l108 336h1399l-76 -336h-116q-17 77 -36.5 123t-49 72.5t-64 35t-90.5 8.5h-115l-278 -995q-11 -38 -11 -70q0 -45 22 -79q38 -56 134 -60l-26 -96h-717l26 94q49 9 87.5 31t63 47.5t45.5 68t33 77.5t27 90l250 892h-82q-133 0 -226 -52.5t-181 -186.5h-127z " />
<glyph unicode="U" horiz-adv-x="1622" d="M244 282q-14 49 -14 105q0 65 18 141l139 516q17 62 17 109q0 132 -132 147l15 97h702l-16 -97q-42 -9 -75.5 -25t-59.5 -42.5t-44.5 -53.5t-35 -69.5t-27.5 -77.5t-26 -90l-115 -418q-21 -77 -21 -141q0 -92 43 -158q73 -112 250 -112q173 0 282.5 93t149.5 251l123 485 q15 62 21 106q5 32 5 63q-1 13 -1 25q-2 44 -18 73.5t-48.5 53.5t-83.5 37l17 97h475l-17 -97q-102 -35 -149.5 -102t-87.5 -229l-121 -498q-29 -121 -84.5 -213t-119.5 -145t-143 -86.5t-147 -44.5t-141 -11q-122 0 -229.5 34.5t-189 103.5t-111.5 173z" />
<glyph unicode="V" horiz-adv-x="1472" d="M307 1300l15 97h622l-14 -97q-100 -16 -134.5 -77.5t-37.5 -178.5l-25 -768l8 -4l220 267q43 65 144 204.5t136 190.5q68 101 86.5 141t18.5 90q0 97 -95 135l17 97h444l-14 -97q-24 -7 -49.5 -22.5t-58.5 -50t-61.5 -67t-78 -98.5t-87.5 -118t-108 -151 q-140 -196 -355 -464.5t-275 -357.5h-238l43 1110v16q0 166 -123 203z" />
<glyph unicode="W" horiz-adv-x="1984" d="M231 1305l17 92h538l-14 -92q-102 -52 -102 -172v-7l24 -819h4q9 15 45 70.5t47.5 74t43.5 68.5t46.5 74t42 68.5t45 74.5t41 70t43.5 77l40 74q-6 193 -27.5 256t-101.5 91l22 92h586l-23 -97q-82 -8 -110 -54q-23 -39 -24 -118q0 -14 1 -30l33 -738h4l225 392 q187 326 187 413q0 45 -26 83t-75 52l15 97h440l-14 -97q-89 -37 -140.5 -94t-132.5 -202q-28 -49 -157 -275.5t-236 -418t-186 -339.5h-211l-41 801h-4q-69 -119 -153 -251t-193.5 -299t-163.5 -251h-203l-43 1063q0 92 -12 145.5t-34 79.5t-63 46z" />
<glyph unicode="X" horiz-adv-x="1579" d="M-12 0l26 96q142 45 396 260l352 297l-191 371q-92 179 -133.5 225.5t-113.5 50.5l14 97h684l-14 -97q-139 -6 -139 -92q0 -36 24 -86l123 -250l211 179q98 81 98 151q0 66 -94 98l14 97h467l-14 -97q-99 -48 -266 -190l-375 -317l223 -437q71 -138 101 -178 q55 -74 122 -82l-35 -96h-624l26 96q98 24 98 103q0 45 -32 108l-135 268l-312 -264q-49 -42 -59 -87q-3 -13 -3 -25q0 -29 18 -53q25 -34 75 -50l-14 -96h-518z" />
<glyph unicode="Y" horiz-adv-x="1386" d="M248 1300l14 97h590l-14 -97q-85 -27 -104 -76q-8 -19 -8 -44q0 -37 17 -86l140 -484l342 461q38 52 49 96q3 14 3 27q0 28 -16 52q-23 36 -83 54l14 97h428l-14 -97q-21 -2 -38 -9.5t-37.5 -27.5t-29 -29.5t-35.5 -44.5t-34 -44l-498 -615l-49 -188q-15 -57 -15 -100 q0 -46 17 -76q32 -59 123 -70l-19 -96h-702l16 96q163 18 225 246l45 166l-165 559q-37 128 -70.5 174.5t-91.5 58.5z" />
<glyph unicode="Z" horiz-adv-x="1404" d="M31 0v96l1022 1204h-152q-140 0 -226 -22t-138.5 -66.5t-100.5 -128.5h-129l111 314h1095v-84l-1034 -1217h90q188 0 306 25t197.5 80.5t152.5 158.5h123l-123 -360h-1194z" />
<glyph unicode="[" horiz-adv-x="788" d="M0 -365l539 1764h479l-17 -96h-51q-91 0 -136 -36.5t-71 -119.5l-393 -1294q-39 -121 111 -121h37l-29 -97h-469z" />
<glyph unicode="\" horiz-adv-x="569" d="M72 1425h233l336 -1462h-233z" />
<glyph unicode="]" horiz-adv-x="788" d="M-180 -365l16 97h51q91 0 136 36.5t71 118.5l393 1295q39 121 -110 121h-37l29 96h469l-539 -1764h-479z" />
<glyph unicode="^" horiz-adv-x="1167" d="M233 598l377 799h221l367 -799h-285l-196 489l-197 -489h-287z" />
<glyph unicode="_" horiz-adv-x="1024" d="M-12 -154h1048v-102h-1048v102z" />
<glyph unicode="`" d="M250 1384h295l106 -344h-78z" />
<glyph unicode="a" horiz-adv-x="1216" d="M80 260q0 60 17 131t50 145.5t85.5 143t117.5 123t153.5 87t186.5 32.5q160 0 266 -115l50 84h143l-205 -653q-9 -27 -9 -50q-1 -9 1 -16q4 -29 25 -29q38 0 106 105h98q-63 -126 -141 -193q-88 -82 -197 -82q-75 0 -116 55t-43 152q-170 -207 -351 -207 q-104 0 -170.5 80.5t-66.5 206.5zM369 330q0 -69 29 -113.5t75 -44.5q58 0 118 53t104 130.5t72 168.5t28 166q0 56 -31 90.5t-80 34.5q-57 0 -109 -35.5t-88.5 -90.5t-63.5 -121t-40.5 -128t-13.5 -110z" />
<glyph unicode="b" horiz-adv-x="1259" d="M137 401l225 742q13 39 13 64q0 22 -10 32q-22 23 -129 23l28 94q9 -1 19 -1q61 1 180 21q139 24 215 49h72l-213 -653l4 -4q88 82 168 118t174 36q146 0 233.5 -93.5t87.5 -248.5q0 -82 -29.5 -167.5t-87.5 -164t-136.5 -140t-184.5 -98.5t-223 -37q-153 0 -259 57.5 t-144 155.5q-20 51 -20 106q0 52 17 109zM397 313q-15 -49 -15 -88q0 -53 28 -87q49 -58 149 -58q69 0 129 42.5t98.5 105t66.5 135t40 130t12 91.5q0 78 -39.5 126t-105.5 48q-99 0 -187.5 -80.5t-126.5 -206.5z" />
<glyph unicode="c" horiz-adv-x="1024" d="M68 326q0 87 27 172t82 161.5t130.5 135t180.5 93t225 34.5q78 0 137 -17.5t92.5 -46.5t49.5 -61.5t16 -65.5q0 -54 -35 -88.5t-88 -34.5q-111 0 -123 109q-6 59 -20.5 78.5t-61.5 19.5q-79 0 -154 -60t-121.5 -158t-46.5 -202q0 -111 65 -181.5t167 -70.5q56 0 119 28 t106 71h143q-234 -269 -526 -269q-167 0 -265.5 95t-98.5 258z" />
<glyph unicode="d" horiz-adv-x="1280" d="M88 279q0 120 54 238.5t141.5 206.5t204 143t235.5 55q113 0 203 -68l92 324q5 20 5 34q0 50 -58 50h-93l29 92q145 8 226.5 23.5t181.5 47.5h69l-368 -1210q-8 -27 -8 -44q0 -28 22 -28q52 0 129 103h107q-78 -130 -180 -201.5t-210 -71.5q-45 0 -82 22q-37 23 -54 63 q-8 19 -8 40q0 26 11 58l-4 4q-77 -90 -169.5 -138.5t-182.5 -48.5q-136 0 -214.5 81.5t-78.5 224.5zM371 340q0 -90 39.5 -139t105.5 -49q70 0 135 58t107.5 142t68 172.5t25.5 153.5q0 64 -40.5 101.5t-98.5 37.5q-73 0 -140 -54.5t-109.5 -132t-67.5 -156.5t-25 -134z " />
<glyph unicode="e" horiz-adv-x="1044" d="M57 289q0 155 101 302.5t264.5 239t335.5 91.5q109 0 177.5 -58.5t68.5 -150.5q0 -163 -178.5 -269.5t-469.5 -115.5q0 -85 55 -142t138 -57q73 0 158 35t129 88h137q-111 -136 -241.5 -207.5t-301.5 -71.5q-186 0 -279.5 88.5t-93.5 227.5zM360 428q203 19 321 94 t118 187q0 43 -34.5 74.5t-80.5 31.5q-84 0 -157.5 -61t-116 -149t-50.5 -177z" />
<glyph unicode="f" d="M-356 -250q0 46 37 81.5t86 35.5q36 0 64 -21.5t42.5 -47t33.5 -47t38 -21.5q31 0 56 50.5t60 182.5l222 817h-129l20 107h141q92 286 215 409q129 129 297 129q82 0 144.5 -47.5t62.5 -109.5q0 -47 -36.5 -82t-86.5 -35q-36 0 -61.5 25t-36.5 55t-27 55t-34 25 q-33 0 -47 -56l-99 -368h162l-14 -107h-179l-108 -391q-64 -230 -131 -386t-160 -249q-147 -147 -321 -147q-91 0 -151 40t-60 103z" />
<glyph unicode="g" horiz-adv-x="1216" d="M-123 -219q0 57 81.5 106.5t197.5 61.5v4q-43 22 -68 60.5t-25 84.5q0 79 73 136t210 85v5q-168 77 -168 243q0 158 130 256.5t341 98.5q148 0 269 -68q71 37 116 52.5t96 15.5q42 0 58 -9t16 -34v-101q0 -31 -5.5 -41t-22.5 -10h-39q-11 0 -26.5 14t-30.5 29.5t-46 25.5 q-17 6 -38 6q-14 0 -29 -3q104 -95 104 -224q0 -65 -25 -119t-65.5 -90t-93.5 -61t-107 -36t-108 -11q-41 0 -121.5 4t-114.5 4q-48 0 -82.5 -22t-34.5 -54q0 -34 35 -46.5t125 -12.5h156q85 0 150 -19t101.5 -51t54 -68.5t17.5 -76.5q0 -41 -21.5 -88.5t-53.5 -79.5 q-72 -72 -199 -106.5t-344 -34.5q-226 0 -344.5 49t-118.5 125zM100 -207q0 -48 75 -69t249 -21q148 0 225.5 21.5t77.5 80.5q0 36 -33 56t-82 20h-241q-67 0 -144 15q-45 0 -86 -31t-41 -72zM453 518q0 -72 39 -118t100 -46q50 0 91.5 29.5t66 75.5t38 96.5t13.5 97.5 q0 76 -40.5 120t-101.5 44q-43 0 -79.5 -21.5t-59 -54.5t-38.5 -74t-22.5 -78.5t-6.5 -70.5z" />
<glyph unicode="h" horiz-adv-x="1280" d="M33 0l354 1161q9 32 13.5 47.5t1.5 30.5t-8 19.5t-27 7.5t-43.5 2t-67.5 -4l29 94q289 28 411 67h60l-295 -915l4 -4q130 203 269.5 309.5t273.5 106.5q75 0 119 -43t44 -115q0 -87 -55 -227l-143 -344q-11 -32 -4.5 -48t22.5 -16q24 0 64 38t84 103h100 q-78 -137 -189 -217t-223 -80q-68 0 -106.5 33.5t-38.5 91.5q0 29 15.5 85t31.5 96l168 407q11 25 11 44q0 11 -4 19q-10 23 -48 23q-57 0 -164.5 -115.5t-218 -299.5t-168.5 -357h-272z" />
<glyph unicode="i" d="M29 633q63 132 168 210.5t219 78.5q106 0 144 -85q16 -36 16 -80q0 -59 -29 -132l-146 -371q-19 -48 -19 -75q0 -36 32 -36q27 0 73 43t76 84h90q-182 -297 -415 -297q-99 0 -135 65q-17 30 -17 70q0 46 23 105l186 483q11 31 2.5 50.5t-29.5 19.5q-32 0 -64.5 -30.5 t-78.5 -102.5h-96zM457 1272q0 63 45 108t108 45t108.5 -45t45.5 -108t-45.5 -108.5t-108.5 -45.5t-108 45.5t-45 108.5z" />
<glyph unicode="j" horiz-adv-x="661" d="M-305 -260q0 50 33.5 81.5t81.5 31.5q45 0 70 -22t31.5 -48t21 -48t40.5 -22q68 0 125 195l226 786q10 31 3.5 51.5t-28.5 20.5q-29 0 -69.5 -39t-63.5 -90h-98q43 98 110 164t135 93.5t136 27.5q39 0 72 -13.5t58 -42.5t30 -76q1 -11 1 -23q0 -39 -12 -89l-174 -619 q-27 -95 -73 -174.5t-111 -142.5t-154.5 -99t-194.5 -36q-94 0 -145 35t-51 98zM432 1272q0 63 45.5 108t108.5 45t108 -45t45 -108t-45 -108.5t-108 -45.5t-108.5 45.5t-45.5 108.5z" />
<glyph unicode="k" horiz-adv-x="1280" d="M23 0l372 1174q6 18 6 32q-1 21 -13 33q-20 21 -64 21h-74l26 92q137 8 261 30t176 43h51l-232 -706l5 -4q96 107 203 157t237 50q112 0 178 -50t66 -135q0 -212 -326 -323l84 -178q22 -48 33.5 -62t31.5 -14q22 0 39.5 14t53.5 62h104q-81 -136 -158 -199.5t-159 -63.5 q-75 0 -120 45.5t-95 153.5l-88 190h-195l-113 -362h-290zM455 444h63q99 0 175.5 15.5t120.5 38.5t71.5 54.5t37 59.5t9.5 58q0 42 -30.5 69t-78.5 27q-22 0 -58 -9t-86 -33t-94.5 -59t-81 -93t-48.5 -128z" />
<glyph unicode="l" horiz-adv-x="618" d="M57 129q0 46 39 168l279 881q6 21 6 37q0 53 -72 53h-80l29 94q87 0 202 17t208 46h57l-383 -1212q-8 -26 -8 -43q0 -35 33 -35q32 0 72.5 36.5t68.5 90.5h90q-59 -122 -160.5 -205.5t-210.5 -83.5q-79 0 -124.5 42t-45.5 114z" />
<glyph unicode="m" horiz-adv-x="2048" d="M12 635q72 135 175.5 211t213.5 76q74 0 118 -36.5t44 -97.5q0 -98 -69 -276l4 -4q146 220 277 317t282 97q84 0 137 -48.5t53 -125.5q0 -87 -47 -240l4 -4q66 106 142.5 188.5t149.5 131t139.5 73.5t123.5 25q60 0 100.5 -25t56.5 -67q15 -38 15 -85v-11 q-2 -54 -22 -113l-144 -408q-10 -29 -10 -47q0 -31 29 -31q58 0 147 141h103q-68 -132 -183 -217.5t-227 -85.5q-51 0 -89.5 31t-52.5 94q-4 18 -4 39q0 52 25 119l160 440q13 37 1.5 58.5t-42.5 21.5q-43 0 -116 -55t-156.5 -150.5t-170.5 -247.5t-147 -323h-274l190 618 q13 41 13 74q0 16 -3 31q-10 43 -51 43q-81 0 -193.5 -110t-216.5 -289.5t-159 -366.5h-277l205 668q11 36 11 59q0 39 -33 39q-28 0 -65.5 -34t-72.5 -97h-94z" />
<glyph unicode="n" horiz-adv-x="1300" d="M35 643q71 130 176.5 204.5t220.5 74.5q64 0 99.5 -33.5t35.5 -93.5q0 -97 -75 -293l4 -4q58 114 126 199t135.5 132.5t130.5 70t124 22.5q82 0 130 -47t48 -127q0 -57 -33 -150l-139 -369q-14 -37 -7.5 -61.5t33.5 -24.5q25 0 64 33.5t74 85.5h86q-69 -127 -178.5 -208 t-212.5 -81q-95 1 -129 77q-15 32 -15 75q0 59 27 137l158 424q8 20 8 39q0 15 -4 27q-10 30 -37 30q-70 0 -183 -131t-213.5 -315t-142.5 -336h-276l211 690q10 31 5 53.5t-24 22.5q-57 0 -127 -123h-100z" />
<glyph unicode="o" horiz-adv-x="1173" d="M74 375q0 75 24 151.5t73.5 147.5t118.5 126.5t166.5 88.5t209.5 33q198 0 321 -110.5t123 -287.5q0 -110 -44 -210.5t-120.5 -175.5t-187 -120t-236.5 -45q-103 0 -189.5 34.5t-142 92t-86 129t-30.5 146.5zM356 285q0 -95 48 -155t122 -60q68 0 123 46t87 112.5 t53.5 147t29.5 142.5t8 105q0 95 -41.5 148.5t-117.5 53.5q-59 0 -111 -40t-87.5 -101.5t-62 -135t-39 -142t-12.5 -121.5z" />
<glyph unicode="p" horiz-adv-x="1259" d="M-174 -385l31 96q105 3 148.5 32.5t64.5 104.5l235 836q-102 -45 -162 -127h-102q43 87 115 146t190 116l66 242l303 51l-64 -209q26 6 68 12q47 7 80 7q189 0 299 -97.5t110 -263.5q0 -42 -8 -88t-32 -105t-61.5 -112.5t-101.5 -106.5t-146.5 -91.5t-203 -62.5 t-264.5 -24l-41 -135q-8 -25 -8 -45q0 -32 20 -51q32 -29 117 -29h41l-31 -96h-663zM418 61q85 0 157.5 18.5t122 48.5t89 71t62.5 83.5t38 89t20.5 84t5.5 72.5q0 27 -4 55.5t-18.5 67.5t-38 68.5t-68.5 50.5t-104 21q-11 0 -34.5 -2.5t-29.5 -2.5z" />
<glyph unicode="q" horiz-adv-x="1216" d="M68 289q0 75 30 160.5t89.5 169t138.5 151.5t187.5 110t225.5 42q177 0 289 -109l45 82h154l-336 -1032q-11 -33 -11 -60q0 -30 15 -52q28 -40 111 -40h22l-31 -96h-641l31 96h19q91 0 127.5 23.5t62.5 93.5l106 291l-4 4q-166 -150 -325 -150q-74 0 -133.5 27t-96 72.5 t-56 101t-19.5 115.5zM362 307q0 -74 38.5 -119t103.5 -45q74 0 162 71.5t122 186.5l72 238q10 32 10 59q0 40 -20 72q-35 55 -113 55q-67 0 -129 -39t-105.5 -99t-76 -131t-48.5 -136t-16 -113z" />
<glyph unicode="r" horiz-adv-x="980" d="M37 602q61 148 158.5 234t201.5 86q73 0 114.5 -47.5t41.5 -131.5q0 -55 -16 -133l-45 -209l4 -4q40 92 66 149t56.5 119t53.5 97.5t50.5 70.5t54 52t57 27t65.5 10q66 0 100.5 -37.5t34.5 -108.5q0 -92 -34 -143t-95 -51q-38 0 -59 25t-21 71q0 7 2 24.5t1.5 25.5 t-7.5 16t-22 8q-32 0 -117.5 -152.5t-160.5 -336t-83 -263.5h-286l139 586q16 66 16 106q0 60 -37 60q-32 0 -68 -40.5t-69 -109.5h-96z" />
<glyph unicode="s" horiz-adv-x="1003" d="M8 211q0 52 34.5 89.5t90.5 37.5q38 0 64.5 -15t41 -38.5t25.5 -52t22.5 -57t27.5 -52t45 -38.5t71 -15q65 0 104 32t39 86q0 34 -20.5 65t-53.5 56t-73 50t-80 53.5t-73 60t-53.5 75t-20.5 93.5q0 129 108 205t291 76q160 0 266.5 -60t106.5 -151q0 -53 -34.5 -87 t-86.5 -34q-48 0 -77.5 24t-42.5 59t-27 69.5t-43.5 58.5t-79.5 24q-61 0 -96 -26t-35 -66q0 -28 22 -56.5t57 -54t77.5 -52.5t85.5 -59t78 -67t57 -82.5t22 -99.5q0 -132 -116 -210.5t-312 -78.5q-90 0 -163 15.5t-118.5 40.5t-76 57t-42.5 63t-12 62z" />
<glyph unicode="t" horiz-adv-x="747" d="M122 94q-12 29 -11 65q0 39 14 87l154 528h-152l29 98q70 6 142.5 46t125 92.5t89 100.5t50.5 81h115l-94 -305h182l-33 -113h-182l-152 -565q-8 -29 5.5 -54.5t41.5 -25.5q72 0 170 131h113q-190 -287 -401 -287q-73 0 -127.5 30.5t-78.5 90.5z" />
<glyph unicode="u" horiz-adv-x="1300" d="M29 631q56 132 159 211.5t220 79.5q70 0 106.5 -40.5t36.5 -115.5q0 -70 -37 -174l-121 -344q-11 -33 -11 -58q0 -16 4 -28q10 -34 40 -33q70 0 157 95.5t158 226t124 254.5t69 194h280l-206 -678q-10 -36 -10 -58q0 -34 24 -34q26 0 72 49t84 113h84 q-75 -149 -180.5 -233.5t-215.5 -84.5q-89 1 -126 61q-20 33 -20 78q0 37 13 81l64 202l-4 4q-113 -217 -242.5 -321.5t-261.5 -104.5q-111 1 -157 89q-22 42 -22 98q0 64 27 147l137 379q8 22 9 40t-7 29t-26 11q-28 0 -71 -44.5t-60 -90.5h-90z" />
<glyph unicode="v" horiz-adv-x="1173" d="M61 596q0 41 21.5 90.5t60.5 96.5t104 78.5t142 31.5h266q31 0 31 -12q0 -1 -11 -19t-36 -66.5t-53 -111.5l-88 -197q-37 -79 -37 -165q0 -88 45.5 -140.5t120.5 -52.5q69 0 126 34t90.5 82t57 104t32.5 96t9 61q0 32 -16.5 65.5t-36.5 59t-36.5 63t-16.5 76.5 q0 65 39.5 108.5t97.5 43.5q66 0 107.5 -55.5t41.5 -143.5q0 -50 -9.5 -111.5t-31.5 -134t-54 -142.5t-81 -136t-108 -116t-140 -80t-172 -30q-159 0 -253.5 78t-94.5 191q0 44 11 81t40 78.5t53.5 69.5t79 86.5t89.5 97.5h-226q-35 0 -48 -4.5t-13 -19.5q0 -8 9 -29.5 t9 -34.5q0 -23 -16 -38t-39 -15q-29 0 -47.5 22.5t-18.5 59.5z" />
<glyph unicode="w" horiz-adv-x="1748" d="M66 600q0 27 8.5 60.5t33 76t62 77t103.5 58t149 23.5h237q19 0 21.5 -7t-8.5 -30l-86 -176q-129 -269 -129 -365q0 -66 36.5 -106.5t96.5 -40.5q65 0 150.5 63t140.5 152q-11 160 -11 193q0 164 50 254t141 90q59 0 98 -44t39 -110q0 -125 -127 -299q46 -258 225 -258 q98 0 171 74t73 174q0 41 -15 78.5t-36 66t-42.5 56t-36.5 59.5t-15 65q0 59 37 98.5t94 39.5q80 0 125 -68t45 -190q0 -88 -22 -183.5t-66 -185.5t-103.5 -162t-142 -116t-174.5 -44q-115 0 -185 68.5t-92 196.5q-118 -135 -219.5 -200t-218.5 -65q-124 0 -209.5 79.5 t-85.5 195.5q0 69 30 122.5t124 153.5l121 129h-242q-47 0 -47 -28q0 -12 10 -30t10 -34q0 -22 -14 -34.5t-39 -12.5q-29 0 -47 23t-18 63z" />
<glyph unicode="x" horiz-adv-x="1259" d="M16 127q0 63 29.5 98t83.5 35q35 0 57.5 -15.5t31 -33.5t24.5 -33.5t39 -15.5q62 0 135 82l108 123l-157 299q-22 41 -38 57t-36 16q-61 0 -113 -102h-90q61 141 146.5 213t179.5 72q33 0 58 -5t49 -22.5t40.5 -34t41 -56.5t41.5 -72t51 -97q9 -18 14 -27 q124 171 211 242.5t172 71.5q67 0 105 -39.5t38 -108.5q0 -61 -28 -95t-79 -34q-32 0 -53 13t-29.5 29t-22 29t-32.5 13q-48 0 -99 -48.5t-136 -164.5l112 -215q8 -14 20 -40t20 -42.5t19.5 -34t24 -26t27.5 -8.5q29 0 57 24t64 82h92q-63 -131 -154 -207t-186 -76 q-120 0 -180 111l-107 197l-92 -121q-67 -91 -145 -139t-156 -48q-75 0 -116.5 40.5t-41.5 113.5z" />
<glyph unicode="y" horiz-adv-x="1130" d="M-199 -256q0 57 43.5 97t102.5 40q45 0 115.5 -43t121.5 -43q93 0 244 160l-172 696q-16 63 -21.5 75.5t-19.5 12.5q-49 0 -94 -133h-96q60 166 134 241t177 75q81 0 118 -42t62 -141l141 -557q82 85 127 169t45 153q0 37 -17 131.5t-17 132.5q0 69 38.5 111.5 t102.5 42.5q69 0 113.5 -49.5t44.5 -127.5q0 -64 -25.5 -135t-91.5 -172q-156 -240 -356 -442q-171 -171 -316 -272q-90 -63 -161.5 -90t-155.5 -27q-85 0 -136 37t-51 100z" />
<glyph unicode="z" horiz-adv-x="1024" d="M12 10q0 114 138 252q63 63 170 130.5t224 134t175 110.5l-4 4q-24 -3 -49 -3q-44 0 -94 10q-78 16 -153.5 36.5t-123.5 20.5q-64 0 -64 -41q0 -8 11 -16.5t22.5 -22.5t11.5 -33q0 -27 -19.5 -44.5t-47.5 -17.5q-39 0 -62.5 26t-23.5 67q0 25 10.5 60t36.5 77.5t63.5 78 t98 59.5t133.5 24q71 0 197 -40t169 -40q32 0 48 12t18 27t7.5 27t19.5 12h51q24 0 23 -23q0 -48 -26.5 -112t-88.5 -126q-78 -78 -180 -144.5t-230 -138t-199 -118.5l5 -4q24 3 49 3q50 -1 106 -11q86 -16 158 -34q68 -19 99 -19h3q32 0 60 10.5t28 32.5q0 15 -21.5 35.5 t-21.5 43.5q0 27 23.5 44.5t52.5 17.5q35 0 56.5 -22.5t21.5 -57.5q0 -45 -22.5 -99t-63 -105t-108.5 -85.5t-148 -34.5q-68 0 -217 42t-176 42q-24 0 -34.5 -13t-9.5 -29t-5 -29t-23 -13h-45q-18 0 -23.5 8.5t-5.5 28.5z" />
<glyph unicode="{" horiz-adv-x="712" d="M238 487v58q92 9 141 70.5t49 148.5q0 52 -23.5 166t-23.5 157q0 60 27 117.5t77 104.5t130.5 75.5t177.5 28.5v-39q-84 -9 -139.5 -65.5t-55.5 -124.5q0 -58 24.5 -161t24.5 -177q0 -109 -84 -202t-244 -126v-4q160 -33 244 -126t84 -202q0 -74 -24.5 -177t-24.5 -161 q0 -68 55.5 -124.5t139.5 -65.5v-39q-97 0 -177.5 28.5t-130.5 75.5t-77 104.5t-27 117.5q0 43 23.5 157t23.5 166q0 87 -49 148.5t-141 70.5z" />
<glyph unicode="|" horiz-adv-x="1204" d="M569 -512v2048h217v-2048h-217z" />
<glyph unicode="}" horiz-adv-x="712" d="M104 -342q84 9 139.5 65.5t55.5 124.5q0 58 -24.5 161t-24.5 177q0 109 84 202t244 126v4q-160 33 -244 126t-84 202q0 74 24.5 177t24.5 161q0 68 -55.5 124.5t-139.5 65.5v39q97 0 177.5 -28.5t130.5 -75.5t77 -104.5t27 -117.5q0 -43 -23.5 -157t-23.5 -166 q0 -87 49 -148.5t141 -70.5v-58q-92 -9 -141 -70.5t-49 -148.5q0 -52 23.5 -166t23.5 -157q0 -60 -27 -117.5t-77 -104.5t-130.5 -75.5t-177.5 -28.5v39z" />
<glyph unicode="~" horiz-adv-x="1167" d="M221 500q15 169 92 260.5t203 91.5q54 0 109 -18.5t131 -53.5q154 -71 237 -71q59 0 99 36.5t55 106.5h63q-3 -152 -79.5 -252t-196.5 -100q-94 0 -260 69q-5 2 -24.5 10.5t-25.5 10.5t-23.5 9t-24.5 9.5t-22.5 8.5t-23.5 8t-21 5.5t-22.5 5t-20 2.5t-20.5 1 q-125 0 -159 -139h-66z" />
<glyph unicode="&#xa1;" horiz-adv-x="747" d="M-6 -345q-29 48 8 120l375 805h78l-156 -859q-12 -69 -56 -91.5t-126 -22.5q-94 0 -123 48zM350 889q0 71 50 120.5t120 49.5t119 -49.5t49 -120.5t-49 -119.5t-119 -48.5q-71 0 -120.5 49t-49.5 119z" />
<glyph unicode="&#xa2;" horiz-adv-x="1110" d="M111 328q0 84 30 171t89 166t138.5 139t186.5 92.5t225 25.5l240 475h106l-243 -490q168 -53 168 -176q0 -56 -35.5 -89.5t-93.5 -33.5q-117 0 -119 127h-4l-285 -563q50 -24 104 -26t99.5 13.5t81 37t59.5 45.5h141q-253 -292 -583 -265l-144 -284h-106l153 307 q-94 34 -151 124t-57 204zM401 387q0 -87 39 -145l287 573q-82 0 -158 -60.5t-122 -160t-46 -207.5z" />
<glyph unicode="&#xa3;" horiz-adv-x="1386" d="M98 -242q0 76 50.5 141t114 99t118.5 37q47 151 61 278h-258l39 140h242l55 209q90 344 264 518q82 82 194.5 134t233.5 52q118 0 193.5 -50t75.5 -128q0 -52 -33.5 -87.5t-83.5 -35.5q-38 0 -59 21t-29.5 51.5t-17 60.5t-32 51t-65.5 21q-81 0 -147 -66 q-96 -96 -189 -456l-77 -295h282l-39 -140h-297q-56 -153 -155 -303q40 -6 84.5 -32t85 -58t82 -63.5t87.5 -52.5t89 -21q41 0 67.5 21.5t26.5 54.5q0 26 -18 48t-36 46t-18 55q0 44 33 77.5t76 33.5q46 0 77 -36.5t31 -90.5q0 -38 -14.5 -82.5t-46.5 -92t-76 -86t-110 -63 t-142 -24.5q-108 0 -188.5 43t-186.5 161q-82 -109 -144 -157.5t-120 -48.5q-34 0 -57 32.5t-23 83.5z" />
<glyph unicode="&#xa4;" horiz-adv-x="1366" d="M188 295l131 129q-71 117 -71 254q0 130 71 250l-131 131l140 143l135 -133q122 74 250 74q127 0 254 -74l131 133l141 -143l-131 -131q74 -127 74 -250q0 -133 -74 -254l131 -129l-141 -141l-131 129q-119 -74 -256 -74q-128 0 -250 74l-129 -129zM449 676 q0 -111 77 -188.5t189 -77.5q110 0 188 78t78 188t-78 188t-188 78q-112 0 -189 -77.5t-77 -188.5z" />
<glyph unicode="&#xa5;" horiz-adv-x="1241" d="M6 420l14 112h437l-111 367h-301l16 113h252q-11 39 -30.5 94t-22.5 65q-21 65 -57.5 91t-98.5 38l15 97h590l-15 -97q-110 -28 -110 -112q0 -65 41 -176h411q55 76 76 113t21 67q0 75 -99 108l15 97h428l-15 -97q-34 -4 -59.5 -24t-71.5 -76l-151 -188h252l-15 -113 h-327l-297 -367h499l-14 -112h-514q-37 -117 -37 -172q0 -71 33 -107t106 -45l-18 -96h-703l17 96q189 18 256 248l22 76h-434zM657 899l82 -289l213 289h-295z" />
<glyph unicode="&#xa6;" horiz-adv-x="1204" d="M569 358h217v-716h-217v716zM569 666v716h217v-716h-217z" />
<glyph unicode="&#xa7;" horiz-adv-x="1216" d="M-53 -266q0 56 42.5 99.5t96.5 43.5q32 0 63.5 -14.5t57.5 -34.5t52 -40.5t56 -35t60 -14.5q75 0 128.5 64t53.5 155q0 67 -27.5 139.5t-66.5 141t-78 142t-66.5 167.5t-27.5 192q0 132 41.5 245.5t111.5 193t163 136.5t196 84t209 27q248 0 248 -147q0 -50 -39 -86.5 t-91 -36.5q-34 0 -74 22t-72 48.5t-74 48.5t-79 22q-77 0 -126.5 -63t-49.5 -162q0 -60 27.5 -134.5t66.5 -149t78.5 -153.5t67 -171.5t27.5 -179.5q0 -132 -45 -244.5t-119.5 -190.5t-171 -133.5t-200 -81.5t-206.5 -26q-113 0 -173 33t-60 94zM418 809q0 -86 26 -172 t62.5 -158t73 -142.5t62.5 -150.5t26 -157q0 -100 -56 -209l4 -4q85 80 131 185t46 222q0 76 -25.5 161t-62.5 161.5t-74 151t-62.5 153t-25.5 143.5q0 109 59 219l-4 5q-82 -60 -131 -170t-49 -238z" />
<glyph unicode="&#xa8;" d="M221 1192q0 60 43 102.5t103 42.5t102.5 -42.5t42.5 -102.5t-42.5 -102.5t-102.5 -42.5t-103 42.5t-43 102.5zM588 1192q0 60 42.5 102.5t102.5 42.5t103 -42.5t43 -102.5t-43 -102.5t-103 -42.5t-102.5 42.5t-42.5 102.5z" />
<glyph unicode="&#xa9;" horiz-adv-x="1529" d="M57 688q0 115 36 223.5t101.5 195.5t152.5 152.5t195.5 101.5t223.5 36t223.5 -36t195.5 -101.5t152.5 -152.5t101.5 -195.5t36 -223.5q0 -144 -56 -275t-151 -226t-226.5 -151t-275.5 -56t-275.5 56t-226.5 151t-151 226t-56 275zM154 688q0 -166 82 -307t223 -223 t307 -82t307 82t223 223t82 307t-82 307t-223 223t-307 82t-307 -82t-223 -223t-82 -307zM334 678q0 191 124 315.5t314 124.5q57 0 107.5 -13t85 -26.5t51.5 -13.5q38 0 47 51h39v-268h-39q-20 103 -86.5 161t-161.5 58q-121 0 -189.5 -96.5t-68.5 -276.5q0 -182 72 -273 t184 -91q147 0 260 139v-72q-124 -127 -319 -127q-186 0 -303 114t-117 294z" />
<glyph unicode="&#xaa;" horiz-adv-x="788" d="M186 973q0 92 52.5 182.5t145 150.5t196.5 60q107 0 178 -68l30 54h95l-133 -391q-18 -54 10 -54t67 58h66q-35 -72 -96.5 -118t-122.5 -46q-100 0 -103 123q-110 -123 -229 -123q-69 0 -112.5 48t-43.5 124zM375 1016q0 -43 18 -69.5t49 -26.5q47 0 96 48t81 122t32 145 q0 34 -20.5 55t-55.5 21q-52 0 -100 -50.5t-74 -118.5t-26 -126z" />
<glyph unicode="&#xab;" horiz-adv-x="1067" d="M147 539q42 48 104 129.5t99 138.5l103 154h227q-48 -90 -168 -248q-83 -110 -141 -174l2 -13l35 -137q36 -160 57 -317h-199l-4 12l-24 127q-33 141 -66 254zM575 539q18 24 102.5 131.5t108.5 138.5q104 137 111 152h223q-36 -65 -86 -138q-76 -109 -170 -223 q-46 -56 -80 -90q16 -78 25 -141q26 -152 39 -283v-14h-197l-2 12l-16 127q-5 31 -21 128.5t-20 125.5q-6 32 -17 74z" />
<glyph unicode="&#xac;" horiz-adv-x="1366" d="M201 815v205h1112v-686h-205v481h-907z" />
<glyph unicode="&#xad;" horiz-adv-x="937" d="M82 324l78 251h692l-78 -251h-692z" />
<glyph unicode="&#xae;" horiz-adv-x="1529" d="M57 688q0 115 36 223.5t101.5 195.5t152.5 152.5t195.5 101.5t223.5 36t223.5 -36t195.5 -101.5t152.5 -152.5t101.5 -195.5t36 -223.5q0 -144 -56 -275t-151 -226t-226.5 -151t-275.5 -56t-275.5 56t-226.5 151t-151 226t-56 275zM154 688q0 -166 82 -307t223 -223 t307 -82t307 82t223 223t82 307t-82 307t-223 223t-307 82t-307 -82t-223 -223t-82 -307zM371 291v33q62 -2 83 26t21 111v471q0 79 -16 103.5t-72 29.5v35h428q137 0 213 -62.5t76 -156.5q0 -75 -46 -128.5t-132 -78.5l135 -250q26 -49 50 -71.5t56 -28.5v-33h-241 l-207 368h-45v-198q0 -85 21.5 -109.5t99.5 -27.5v-33h-424zM674 711h51q76 0 120 47.5t44 126.5q0 172 -178 172h-37v-346z" />
<glyph unicode="&#xaf;" d="M178 1092l49 161h695l-50 -161h-694z" />
<glyph unicode="&#xb0;" horiz-adv-x="819" d="M186 1051q0 143 102 244.5t244 101.5q143 0 245 -102t102 -244t-102 -244t-245 -102q-142 0 -244 101.5t-102 244.5zM317 1051q0 -89 63 -152t152 -63t152.5 63t63.5 152t-63.5 152t-152.5 63t-152 -63t-63 -152z" />
<glyph unicode="&#xb1;" horiz-adv-x="1368" d="M201 0v205h1110v-205h-1110zM201 788v205h452v432h205v-432h453v-205h-453v-432h-205v432h-452z" />
<glyph unicode="&#xb2;" d="M76 655l10 45q75 68 219 174t174 136q50 50 70 87t20 79q0 44 -31.5 69t-88.5 25q-89 0 -195 -74l-45 41q146 129 321 129q106 0 175 -48.5t69 -123.5q0 -74 -59 -133q-42 -42 -110 -86t-159.5 -96.5t-144.5 -87.5v-5h215q71 0 87.5 7.5t25.5 44.5h78l-39 -183h-592z" />
<glyph unicode="&#xb3;" d="M80 696q0 32 15.5 52t41.5 20q17 0 82 -33t111 -33q75 0 125.5 54.5t50.5 132.5q0 66 -46 89t-138 15l26 64q122 -15 194 33.5t72 99.5q0 35 -29 57.5t-75 22.5q-43 0 -80.5 -16.5t-87.5 -53.5l-20 66q109 100 262 100q91 0 144.5 -36t53.5 -97q0 -54 -36.5 -94.5 t-122.5 -81.5q88 -68 88 -148q0 -67 -55.5 -129t-149.5 -99.5t-199 -37.5q-97 0 -162 13t-65 40z" />
<glyph unicode="&#xb4;" d="M440 1040l107 344h295l-324 -344h-78z" />
<glyph unicode="&#xb5;" horiz-adv-x="1179" d="M-84 -336q0 42 23.5 94t54.5 98t69 120.5t60 148.5l223 770h250l-168 -571q-2 -8 -8 -28t-8 -28.5t-5.5 -23.5t-4.5 -27.5t-1 -26.5q0 -30 23 -50.5t53 -20.5q65 0 141.5 94t120.5 240l138 442h249l-204 -702q-14 -46 -2.5 -79.5t43.5 -33.5q51 0 116 145l35 -20 q-79 -232 -264 -232q-89 0 -137.5 63.5t-22.5 184.5l-4 4q-89 -130 -166.5 -191t-175.5 -61q-55 0 -88 19t-63 67q-27 -79 -38 -135t-12 -135q-5 -231 -131 -231q-41 0 -68.5 30.5t-27.5 75.5z" />
<glyph unicode="&#xb6;" horiz-adv-x="1105" d="M121 936q0 72 15.5 135.5t53 124.5t95 104.5t148.5 70t206 26.5h590v-43h-43q-73 0 -109.5 -33.5t-36.5 -110.5v-1603h-98v1714h-182v-1714h-101v862q-255 0 -396.5 128t-141.5 339z" />
<glyph unicode="&#xb7;" horiz-adv-x="704" d="M242 672q0 70 49 119t119 49q71 0 120.5 -49t49.5 -119t-50 -120t-120 -50t-119 49.5t-49 120.5z" />
<glyph unicode="&#xb8;" d="M-72 -385l11 35q113 -17 153 -17q81 0 134 32.5t53 82.5q0 47 -45 76t-132 8l-18 33l223 135h103l-93 -55v-4q103 -4 159 -53.5t56 -114.5q0 -89 -93.5 -140t-256.5 -51q-148 0 -254 33z" />
<glyph unicode="&#xb9;" d="M156 655l16 60q104 0 135 106l125 396h-141l16 57q75 3 144 28t108 64h115l-172 -555q-12 -43 7 -65t83 -31l-17 -60h-419z" />
<glyph unicode="&#xba;" horiz-adv-x="768" d="M186 1040q0 135 112.5 230.5t272.5 95.5q128 0 208.5 -66t80.5 -170q0 -138 -111.5 -233.5t-271.5 -95.5q-123 0 -207 69t-84 170zM367 985q0 -59 32 -95t86 -36q47 0 86.5 41t61.5 98.5t33.5 109.5t11.5 85q0 56 -29 87.5t-80 31.5q-48 0 -88 -36.5t-64 -89t-37 -105 t-13 -91.5z" />
<glyph unicode="&#xbb;" horiz-adv-x="1067" d="M-12 66q36 65 84 135q53 78 170 223q47 60 82 92q-18 86 -27 139q-28 179 -37 285l-2 14h199l2 -14q18 -156 41 -289q17 -109 32 -166l-14 -18l-72 -88q-35 -44 -124 -164q-65 -84 -101 -137l-10 -12h-223zM426 66q50 89 168 247q87 113 143 172l-4 15q-31 121 -63 284 q-24 135 -27 170h199l2 -12l26 -127q25 -123 66 -254q10 -39 22 -76q-40 -47 -104 -131.5t-98 -134.5l-94 -143l-7 -10h-229z" />
<glyph unicode="&#xbc;" horiz-adv-x="1898" d="M158 655l16 60q104 0 135 106l125 396h-141l16 57q75 3 144 28t108 64h115l-172 -555q-12 -43 7 -65t83 -31l-16 -60h-420zM315 -37l1194 1434h150l-1194 -1434h-150zM1075 203l6 96l463 410h178l-129 -410h125l-26 -96h-123l-70 -215h-194l71 215h-301zM1184 299h219 l80 258l-4 4z" />
<glyph unicode="&#xbd;" horiz-adv-x="1898" d="M158 655l16 60q104 0 135 106l125 396h-141l16 57q75 3 144 28t108 64h115l-172 -555q-12 -43 7 -65t83 -31l-16 -60h-420zM315 -37l1194 1434h150l-1194 -1434h-150zM1092 0l10 45q75 68 219.5 174t173.5 135q50 50 70 87t20 79q0 44 -32 69t-89 25q-89 0 -194 -73 l-45 41q146 129 321 129q106 0 175 -48.5t69 -123.5q0 -74 -59 -133q-42 -42 -110 -86t-160 -97t-144 -88v-4h215q71 0 87.5 7.5t25.5 43.5h77l-39 -182h-591z" />
<glyph unicode="&#xbe;" horiz-adv-x="1898" d="M55 696q0 32 16 52t42 20q17 0 81.5 -33t110.5 -33q76 0 126 53.5t50 133.5q0 127 -184 104l27 64q122 -15 194 33.5t72 99.5q0 35 -29.5 57.5t-75.5 22.5q-43 0 -80.5 -16.5t-87.5 -53.5l-20 66q109 100 262 100q91 0 145 -36t54 -97q0 -54 -37 -94.5t-123 -81.5 q88 -66 88 -148q0 -107 -120.5 -186.5t-282.5 -79.5q-97 0 -162.5 13t-65.5 40zM315 -37l1194 1434h150l-1194 -1434h-150zM1075 203l6 96l463 410h178l-129 -410h125l-26 -96h-123l-70 -215h-194l71 215h-301zM1184 299h219l80 258l-4 4z" />
<glyph unicode="&#xbf;" horiz-adv-x="1044" d="M119 55q0 91 36.5 184.5t96.5 153.5q115 115 305 123q89 3 118 19t48 69h115l-80 -305q-17 -65 -33.5 -84.5t-54.5 -19.5q-14 0 -69 6t-95 6q-120 0 -197.5 -56.5t-77.5 -142.5q0 -62 41 -105.5t121 -43.5q55 0 106.5 9t75.5 9q60 0 101 -35.5t41 -87.5q0 -66 -56 -106.5 t-147 -40.5q-163 0 -279 131t-116 317zM657 889q0 71 49.5 120.5t120.5 49.5q70 0 119 -49.5t49 -120.5t-48.5 -119.5t-119.5 -48.5t-120.5 49t-49.5 119z" />
<glyph unicode="&#xc0;" horiz-adv-x="1449" d="M-111 0l27 96q70 34 116.5 80.5t147.5 175.5q58 76 138.5 181.5t121.5 159t92.5 118t94.5 113.5q72 82 215 250t215 251h291l-123 -1163q-9 -79 20 -114.5t103 -51.5l-27 -96h-637l16 96q108 13 147.5 68t53.5 207l10 106h-501l-93 -143q-56 -88 -38 -149.5t102 -88.5 l-12 -96h-480zM500 594h422l59 582l-4 4q-115 -135 -170.5 -200.5t-145.5 -177.5t-161 -208zM1010 1882h295l106 -344h-78z" />
<glyph unicode="&#xc1;" horiz-adv-x="1449" d="M-111 0l27 96q70 34 116.5 80.5t147.5 175.5q58 76 138.5 181.5t121.5 159t92.5 118t94.5 113.5q72 82 215 250t215 251h291l-123 -1163q-9 -79 20 -114.5t103 -51.5l-27 -96h-637l16 96q108 13 147.5 68t53.5 207l10 106h-501l-93 -143q-56 -88 -38 -149.5t102 -88.5 l-12 -96h-480zM500 594h422l59 582l-4 4q-115 -135 -170.5 -200.5t-145.5 -177.5t-161 -208zM1139 1538l106 344h295l-323 -344h-78z" />
<glyph unicode="&#xc2;" horiz-adv-x="1449" d="M-111 0l27 96q70 34 116.5 80.5t147.5 175.5q58 76 138.5 181.5t121.5 159t92.5 118t94.5 113.5q72 82 215 250t215 251h291l-123 -1163q-9 -79 20 -114.5t103 -51.5l-27 -96h-637l16 96q108 13 147.5 68t53.5 207l10 106h-501l-93 -143q-56 -88 -38 -149.5t102 -88.5 l-12 -96h-480zM500 594h422l59 582l-4 4q-115 -135 -170.5 -200.5t-145.5 -177.5t-161 -208zM883 1544l307 340h225l103 -340h-103l-133 203l-293 -203h-106z" />
<glyph unicode="&#xc3;" horiz-adv-x="1449" d="M-111 0l27 96q70 34 116.5 80.5t147.5 175.5q58 76 138.5 181.5t121.5 159t92.5 118t94.5 113.5q72 82 215 250t215 251h291l-123 -1163q-9 -79 20 -114.5t103 -51.5l-27 -96h-637l16 96q108 13 147.5 68t53.5 207l10 106h-501l-93 -143q-56 -88 -38 -149.5t102 -88.5 l-12 -96h-480zM500 594h422l59 582l-4 4q-115 -135 -170.5 -200.5t-145.5 -177.5t-161 -208zM930 1577q0 124 61 201q57 75 139 75q52 0 112.5 -22.5t109 -45t71.5 -22.5q64 0 78 90h62q3 -121 -53.5 -198.5t-139.5 -77.5q-48 0 -107.5 23t-110.5 46t-79 23q-63 0 -78 -92 h-65z" />
<glyph unicode="&#xc4;" horiz-adv-x="1449" d="M-111 0l27 96q70 34 116.5 80.5t147.5 175.5q58 76 138.5 181.5t121.5 159t92.5 118t94.5 113.5q72 82 215 250t215 251h291l-123 -1163q-9 -79 20 -114.5t103 -51.5l-27 -96h-637l16 96q108 13 147.5 68t53.5 207l10 106h-501l-93 -143q-56 -88 -38 -149.5t102 -88.5 l-12 -96h-480zM500 594h422l59 582l-4 4q-115 -135 -170.5 -200.5t-145.5 -177.5t-161 -208zM920 1690q0 60 42.5 102.5t102.5 42.5t102.5 -42.5t42.5 -102.5t-42.5 -103t-102.5 -43t-102.5 43t-42.5 103zM1286 1690q0 60 43 102.5t103 42.5t102.5 -42.5t42.5 -102.5 t-42.5 -103t-102.5 -43t-103 43t-43 103z" />
<glyph unicode="&#xc5;" horiz-adv-x="1449" d="M-111 0l27 96q70 34 116.5 80.5t147.5 175.5q58 76 138.5 181.5t121.5 159t92.5 118t94.5 113.5q72 82 215 250t215 251h291l-123 -1163q-9 -79 20 -114.5t103 -51.5l-27 -96h-637l16 96q108 13 147.5 68t53.5 207l10 106h-501l-93 -143q-56 -88 -38 -149.5t102 -88.5 l-12 -96h-480zM500 594h422l59 582l-4 4q-115 -135 -170.5 -200.5t-145.5 -177.5t-161 -208zM1044 1716q0 86 60.5 146.5t146.5 60.5t147.5 -60.5t61.5 -146.5t-61.5 -147.5t-147.5 -61.5t-146.5 61.5t-60.5 147.5zM1118 1716q0 -56 39 -95.5t94 -39.5t95 39.5t40 95.5 q0 55 -39.5 94t-95.5 39q-55 0 -94 -38.5t-39 -94.5z" />
<glyph unicode="&#xc6;" horiz-adv-x="1961" d="M-123 0l25 96q97 35 156.5 85t136.5 159l510 721q58 83 72 131.5t-13 73.5t-102 34l22 97h1368l-67 -320h-103q-39 123 -91.5 173t-164.5 50h-221l-143 -516h104q115 0 190.5 38.5t124.5 133.5h109l-125 -469h-104q-12 110 -55.5 155.5t-139.5 45.5h-127l-98 -358 q-30 -110 7.5 -172t147.5 -62q114 0 245.5 68.5t244.5 197.5h123l-140 -362h-1208l23 96q94 14 137.5 66t83.5 198l90 328h-348l-164 -256q-102 -163 -102 -225q0 -44 24.5 -71.5t81.5 -39.5l-25 -96h-485zM618 784h300l124 455q6 26 -2.5 43.5t-29.5 17.5q-19 0 -43 -21.5 t-45 -51.5z" />
<glyph unicode="&#xc7;" horiz-adv-x="1536" d="M168 532q0 169 73.5 331t198.5 286t305.5 200t380.5 76q142 0 285 -41.5t256 -115.5l-82 -307h-119q0 173 -85 270.5t-234 97.5q-124 0 -228.5 -55t-174 -142.5t-119 -199t-71.5 -221t-22 -211.5q0 -191 93 -306.5t247 -115.5q283 0 457 385h154l-82 -338 q-159 -77 -299 -115.5t-309 -38.5l-45 -26v-4q103 -4 159 -53.5t56 -114.5q0 -89 -94 -140t-257 -51q-148 0 -254 33l11 35q113 -17 153 -17q81 0 134 32.5t53 82.5q0 47 -45 76t-132 8l-18 33l186 110v5q-243 26 -387.5 182.5t-144.5 369.5z" />
<glyph unicode="&#xc8;" horiz-adv-x="1515" d="M6 0l17 96q50 12 85 34.5t61.5 62.5t44 85.5t38.5 118.5l166 625q35 117 15 186.5t-114 91.5l15 97h1265l-65 -322h-115q-35 126 -82.5 175.5t-128.5 49.5h-370l-140 -518h185q142 0 215 35t129 129h112l-122 -463h-101q-23 120 -62.5 161.5t-131.5 41.5h-250l-105 -381 q-28 -103 25.5 -156t169.5 -53q157 0 316.5 69t240.5 197h129l-137 -362h-1305zM850 1882h295l106 -344h-77z" />
<glyph unicode="&#xc9;" horiz-adv-x="1515" d="M6 0l17 96q50 12 85 34.5t61.5 62.5t44 85.5t38.5 118.5l166 625q35 117 15 186.5t-114 91.5l15 97h1265l-65 -322h-115q-35 126 -82.5 175.5t-128.5 49.5h-370l-140 -518h185q142 0 215 35t129 129h112l-122 -463h-101q-23 120 -62.5 161.5t-131.5 41.5h-250l-105 -381 q-28 -103 25.5 -156t169.5 -53q157 0 316.5 69t240.5 197h129l-137 -362h-1305zM979 1538l106 344h295l-323 -344h-78z" />
<glyph unicode="&#xca;" horiz-adv-x="1515" d="M6 0l17 96q50 12 85 34.5t61.5 62.5t44 85.5t38.5 118.5l166 625q35 117 15 186.5t-114 91.5l15 97h1265l-65 -322h-115q-35 126 -82.5 175.5t-128.5 49.5h-370l-140 -518h185q142 0 215 35t129 129h112l-122 -463h-101q-23 120 -62.5 161.5t-131.5 41.5h-250l-105 -381 q-28 -103 25.5 -156t169.5 -53q157 0 316.5 69t240.5 197h129l-137 -362h-1305zM723 1544l307 340h225l103 -340h-103l-133 203l-293 -203h-106z" />
<glyph unicode="&#xcb;" horiz-adv-x="1515" d="M6 0l17 96q50 12 85 34.5t61.5 62.5t44 85.5t38.5 118.5l166 625q35 117 15 186.5t-114 91.5l15 97h1265l-65 -322h-115q-35 126 -82.5 175.5t-128.5 49.5h-370l-140 -518h185q142 0 215 35t129 129h112l-122 -463h-101q-23 120 -62.5 161.5t-131.5 41.5h-250l-105 -381 q-28 -103 25.5 -156t169.5 -53q157 0 316.5 69t240.5 197h129l-137 -362h-1305zM760 1690q0 60 42.5 102.5t102.5 42.5t103 -42.5t43 -102.5t-43 -103t-103 -43t-102.5 43t-42.5 103zM1126 1690q0 60 43 102.5t103 42.5t102.5 -42.5t42.5 -102.5t-42.5 -103t-102.5 -43 t-103 43t-43 103z" />
<glyph unicode="&#xcc;" horiz-adv-x="854" d="M0 0l27 96q80 14 129.5 70t83.5 182l194 729q13 56 13.5 104.5t-24.5 81.5t-75 37l27 97h626l-26 -97q-84 -22 -132.5 -92t-80.5 -190l-193 -721q-21 -78 10.5 -131t116.5 -70l-26 -96h-670zM518 1882h295l107 -344h-78z" />
<glyph unicode="&#xcd;" horiz-adv-x="854" d="M0 0l27 96q80 14 129.5 70t83.5 182l194 729q13 56 13.5 104.5t-24.5 81.5t-75 37l27 97h626l-26 -97q-84 -22 -132.5 -92t-80.5 -190l-193 -721q-21 -78 10.5 -131t116.5 -70l-26 -96h-670zM647 1538l107 344h295l-324 -344h-78z" />
<glyph unicode="&#xce;" horiz-adv-x="854" d="M0 0l27 96q80 14 129.5 70t83.5 182l194 729q13 56 13.5 104.5t-24.5 81.5t-75 37l27 97h626l-26 -97q-84 -22 -132.5 -92t-80.5 -190l-193 -721q-21 -78 10.5 -131t116.5 -70l-26 -96h-670zM391 1544l307 340h226l102 -340h-102l-133 203l-293 -203h-107z" />
<glyph unicode="&#xcf;" horiz-adv-x="854" d="M0 0l27 96q80 14 129.5 70t83.5 182l194 729q13 56 13.5 104.5t-24.5 81.5t-75 37l27 97h626l-26 -97q-84 -22 -132.5 -92t-80.5 -190l-193 -721q-21 -78 10.5 -131t116.5 -70l-26 -96h-670zM428 1690q0 60 42.5 102.5t102.5 42.5t103 -42.5t43 -102.5t-43 -103t-103 -43 t-102.5 43t-42.5 103zM795 1690q0 60 42.5 102.5t102.5 42.5t102.5 -42.5t42.5 -102.5t-42.5 -103t-102.5 -43t-102.5 43t-42.5 103z" />
<glyph unicode="&#xd0;" horiz-adv-x="1642" d="M33 0l24 96q105 51 145 104t79 197l75 279h-166l29 115h166l70 262q61 228 -121 247l24 97h652q135 0 242.5 -39t174 -101t110.5 -147t61.5 -170.5t17.5 -177.5q0 -97 -25 -198.5t-83 -203.5t-141 -181.5t-209.5 -129t-278.5 -49.5h-846zM600 322q-29 -101 17 -158.5 t149 -57.5q99 0 182.5 46t140 121t96.5 173t58.5 201t18.5 205q0 94 -19 172t-58 138.5t-103.5 94t-149.5 33.5h-62l-139 -499h275l-31 -115h-277z" />
<glyph unicode="&#xd1;" horiz-adv-x="1665" d="M0 0l23 96q97 24 139 86t90 246l190 737q-53 82 -94 113t-104 22l26 97h439l587 -1049l168 629q16 63 20 116t-6 100.5t-45.5 75.5t-93.5 31l27 97h442l-26 -97q-90 -42 -136 -114.5t-83 -210.5l-201 -748l108 -227h-370l-584 1061l-172 -678q-37 -138 -3.5 -207.5 t151.5 -79.5l-23 -96h-469zM844 1577q0 124 61 201q57 75 139 75q52 0 112.5 -22.5t109 -45t71.5 -22.5q64 0 78 90h62q3 -121 -53.5 -198.5t-139.5 -77.5q-48 0 -107.5 23t-110.5 46t-79 23q-63 0 -78 -92h-65z" />
<glyph unicode="&#xd2;" horiz-adv-x="1748" d="M164 535q0 128 39.5 254.5t120 241t191.5 202.5t265.5 140t329.5 52q120 0 230 -39t197.5 -110.5t139.5 -183.5t52 -248q0 -107 -30 -213.5t-85.5 -203t-138.5 -180.5t-184 -145t-228 -96t-264 -35q-120 0 -224 32.5t-178 88t-127.5 127.5t-79.5 153t-26 163zM532 444 q0 -164 81.5 -265t217.5 -101q92 0 170.5 42t132.5 108.5t97.5 155t69.5 177t43 177.5t23.5 153.5t6.5 109.5q0 148 -79.5 233t-217.5 85q-80 0 -153 -37.5t-126.5 -99.5t-99 -142.5t-75.5 -164.5t-51 -167t-30.5 -150t-9.5 -114zM967 1882h295l106 -344h-78z" />
<glyph unicode="&#xd3;" horiz-adv-x="1748" d="M164 535q0 128 39.5 254.5t120 241t191.5 202.5t265.5 140t329.5 52q120 0 230 -39t197.5 -110.5t139.5 -183.5t52 -248q0 -107 -30 -213.5t-85.5 -203t-138.5 -180.5t-184 -145t-228 -96t-264 -35q-120 0 -224 32.5t-178 88t-127.5 127.5t-79.5 153t-26 163zM532 444 q0 -164 81.5 -265t217.5 -101q92 0 170.5 42t132.5 108.5t97.5 155t69.5 177t43 177.5t23.5 153.5t6.5 109.5q0 148 -79.5 233t-217.5 85q-80 0 -153 -37.5t-126.5 -99.5t-99 -142.5t-75.5 -164.5t-51 -167t-30.5 -150t-9.5 -114zM1096 1538l106 344h295l-323 -344h-78z" />
<glyph unicode="&#xd4;" horiz-adv-x="1748" d="M164 535q0 128 39.5 254.5t120 241t191.5 202.5t265.5 140t329.5 52q120 0 230 -39t197.5 -110.5t139.5 -183.5t52 -248q0 -107 -30 -213.5t-85.5 -203t-138.5 -180.5t-184 -145t-228 -96t-264 -35q-120 0 -224 32.5t-178 88t-127.5 127.5t-79.5 153t-26 163zM532 444 q0 -164 81.5 -265t217.5 -101q92 0 170.5 42t132.5 108.5t97.5 155t69.5 177t43 177.5t23.5 153.5t6.5 109.5q0 148 -79.5 233t-217.5 85q-80 0 -153 -37.5t-126.5 -99.5t-99 -142.5t-75.5 -164.5t-51 -167t-30.5 -150t-9.5 -114zM840 1544l307 340h225l103 -340h-103 l-133 203l-293 -203h-106z" />
<glyph unicode="&#xd5;" horiz-adv-x="1748" d="M164 535q0 128 39.5 254.5t120 241t191.5 202.5t265.5 140t329.5 52q120 0 230 -39t197.5 -110.5t139.5 -183.5t52 -248q0 -107 -30 -213.5t-85.5 -203t-138.5 -180.5t-184 -145t-228 -96t-264 -35q-120 0 -224 32.5t-178 88t-127.5 127.5t-79.5 153t-26 163zM532 444 q0 -164 81.5 -265t217.5 -101q92 0 170.5 42t132.5 108.5t97.5 155t69.5 177t43 177.5t23.5 153.5t6.5 109.5q0 148 -79.5 233t-217.5 85q-80 0 -153 -37.5t-126.5 -99.5t-99 -142.5t-75.5 -164.5t-51 -167t-30.5 -150t-9.5 -114zM887 1577q0 124 61 201q57 75 139 75 q52 0 112.5 -22.5t109 -45t71.5 -22.5q64 0 78 90h62q3 -121 -53.5 -198.5t-139.5 -77.5q-48 0 -107.5 23t-110.5 46t-79 23q-63 0 -78 -92h-65z" />
<glyph unicode="&#xd6;" horiz-adv-x="1748" d="M164 535q0 128 39.5 254.5t120 241t191.5 202.5t265.5 140t329.5 52q120 0 230 -39t197.5 -110.5t139.5 -183.5t52 -248q0 -107 -30 -213.5t-85.5 -203t-138.5 -180.5t-184 -145t-228 -96t-264 -35q-120 0 -224 32.5t-178 88t-127.5 127.5t-79.5 153t-26 163zM532 444 q0 -164 81.5 -265t217.5 -101q92 0 170.5 42t132.5 108.5t97.5 155t69.5 177t43 177.5t23.5 153.5t6.5 109.5q0 148 -79.5 233t-217.5 85q-80 0 -153 -37.5t-126.5 -99.5t-99 -142.5t-75.5 -164.5t-51 -167t-30.5 -150t-9.5 -114zM877 1690q0 60 42.5 102.5t102.5 42.5 t102.5 -42.5t42.5 -102.5t-42.5 -103t-102.5 -43t-102.5 43t-42.5 103zM1243 1690q0 60 43 102.5t103 42.5t102.5 -42.5t42.5 -102.5t-42.5 -103t-102.5 -43t-103 43t-43 103z" />
<glyph unicode="&#xd7;" horiz-adv-x="1366" d="M233 299l377 377l-374 375l145 145l375 -375l377 377l147 -147l-375 -375l375 -375l-150 -149l-374 374l-375 -374z" />
<glyph unicode="&#xd8;" horiz-adv-x="1748" d="M164 535q0 128 39.5 254.5t120 241t191.5 202.5t265.5 140t329.5 52q193 0 369 -104l114 115l80 -80l-106 -107q76 -76 119 -182t43 -223q0 -107 -30 -213.5t-85.5 -203t-138.5 -180.5t-184 -145t-228 -96t-264 -35q-111 0 -214 29.5t-179 83.5l-115 -115l-78 76l111 111 q-78 78 -119 177t-41 202zM532 444q0 -48 5 -73l798 805q-76 143 -258 143q-88 0 -167.5 -45.5t-137 -120.5t-104 -167.5t-75 -192t-44 -188.5t-17.5 -161zM571 250q32 -78 100.5 -125t159.5 -47q92 0 170.5 42.5t133.5 112t98.5 160t69.5 184t43 187.5t22.5 166.5 t3.5 124.5z" />
<glyph unicode="&#xd9;" horiz-adv-x="1622" d="M243.5 282.5q-29.5 104.5 4.5 245.5l139 516q64 236 -115 256l15 97h702l-16 -97q-42 -9 -75.5 -25t-59.5 -42.5t-44.5 -53.5t-35 -69.5t-27.5 -77.5t-26 -90l-115 -418q-51 -187 22 -299t250 -112q173 0 282.5 93t149.5 251l123 485q15 61 21.5 105.5t4 88t-18.5 73.5 t-48.5 54t-83.5 37l17 97h475l-17 -97q-102 -35 -149.5 -102t-87.5 -229l-121 -498q-29 -121 -84.5 -213t-119.5 -145t-143 -86.5t-147 -44.5t-141 -11q-122 0 -229.5 34.5t-189.5 103.5t-111.5 173.5zM903 1882h295l107 -344h-78z" />
<glyph unicode="&#xda;" horiz-adv-x="1622" d="M243.5 282.5q-29.5 104.5 4.5 245.5l139 516q64 236 -115 256l15 97h702l-16 -97q-42 -9 -75.5 -25t-59.5 -42.5t-44.5 -53.5t-35 -69.5t-27.5 -77.5t-26 -90l-115 -418q-51 -187 22 -299t250 -112q173 0 282.5 93t149.5 251l123 485q15 61 21.5 105.5t4 88t-18.5 73.5 t-48.5 54t-83.5 37l17 97h475l-17 -97q-102 -35 -149.5 -102t-87.5 -229l-121 -498q-29 -121 -84.5 -213t-119.5 -145t-143 -86.5t-147 -44.5t-141 -11q-122 0 -229.5 34.5t-189.5 103.5t-111.5 173.5zM1032 1538l107 344h295l-324 -344h-78z" />
<glyph unicode="&#xdb;" horiz-adv-x="1622" d="M243.5 282.5q-29.5 104.5 4.5 245.5l139 516q64 236 -115 256l15 97h702l-16 -97q-42 -9 -75.5 -25t-59.5 -42.5t-44.5 -53.5t-35 -69.5t-27.5 -77.5t-26 -90l-115 -418q-51 -187 22 -299t250 -112q173 0 282.5 93t149.5 251l123 485q15 61 21.5 105.5t4 88t-18.5 73.5 t-48.5 54t-83.5 37l17 97h475l-17 -97q-102 -35 -149.5 -102t-87.5 -229l-121 -498q-29 -121 -84.5 -213t-119.5 -145t-143 -86.5t-147 -44.5t-141 -11q-122 0 -229.5 34.5t-189.5 103.5t-111.5 173.5zM776 1544l307 340h226l102 -340h-102l-133 203l-293 -203h-107z" />
<glyph unicode="&#xdc;" horiz-adv-x="1622" d="M243.5 282.5q-29.5 104.5 4.5 245.5l139 516q64 236 -115 256l15 97h702l-16 -97q-42 -9 -75.5 -25t-59.5 -42.5t-44.5 -53.5t-35 -69.5t-27.5 -77.5t-26 -90l-115 -418q-51 -187 22 -299t250 -112q173 0 282.5 93t149.5 251l123 485q15 61 21.5 105.5t4 88t-18.5 73.5 t-48.5 54t-83.5 37l17 97h475l-17 -97q-102 -35 -149.5 -102t-87.5 -229l-121 -498q-29 -121 -84.5 -213t-119.5 -145t-143 -86.5t-147 -44.5t-141 -11q-122 0 -229.5 34.5t-189.5 103.5t-111.5 173.5zM813 1690q0 60 42.5 102.5t102.5 42.5t103 -42.5t43 -102.5t-43 -103 t-103 -43t-102.5 43t-42.5 103zM1180 1690q0 60 42.5 102.5t102.5 42.5t102.5 -42.5t42.5 -102.5t-42.5 -103t-102.5 -43t-102.5 43t-42.5 103z" />
<glyph unicode="&#xdd;" horiz-adv-x="1386" d="M248 1300l14 97h590l-14 -97q-85 -27 -104.5 -75.5t9.5 -130.5l140 -484l342 461q38 52 48.5 96t-12.5 79.5t-83 53.5l14 97h428l-14 -97q-21 -2 -38 -9.5t-37.5 -27.5t-29 -29.5t-35.5 -44.5t-34 -44l-498 -615l-49 -188q-30 -117 2 -176t123 -70l-19 -96h-702l16 96 q163 18 225 246l45 166l-165 559q-37 128 -70.5 174.5t-91.5 58.5zM913 1538l107 344h295l-324 -344h-78z" />
<glyph unicode="&#xde;" horiz-adv-x="1386" d="M-8 0l24 96q72 27 112 59.5t67.5 86.5t54.5 155l170 631q37 129 13.5 189t-126.5 83l27 97h684l-27 -97q-89 -32 -138 -81.5t-69 -126.5h191q128 0 221.5 -27.5t145 -76t75 -106.5t23.5 -128q0 -54 -15 -109.5t-56.5 -118t-105.5 -110.5t-172.5 -79.5t-246.5 -31.5h-279 q-15 -93 24 -149t132 -60l-14 -96h-715zM594 412h190q86 0 148 32t94 87t45.5 114t13.5 127q0 213 -237 213h-92z" />
<glyph unicode="&#xdf;" horiz-adv-x="1236" d="M-309 -272q0 47 32 80.5t78 33.5q35 0 58 -17t31 -38t19.5 -38t27.5 -17q25 0 42.5 34.5t36.5 118.5l164 762q33 157 70 273t88.5 215t115.5 160.5t151.5 95.5t197.5 34q173 0 286 -86.5t113 -218.5q0 -117 -92.5 -195t-265.5 -104v-4q139 -57 210.5 -153t71.5 -224 q0 -121 -65 -229t-173 -173t-229 -65q-91 0 -152 41.5t-61 102.5q0 44 34 77t79 33q42 0 65.5 -23t28 -50.5t13.5 -50.5t26 -23q39 0 79.5 86.5t64.5 196.5t24 188q0 91 -59.5 146t-167.5 48l22 113q78 0 134 24t85.5 66.5t42.5 90t13 104.5q0 83 -38.5 129.5t-107.5 46.5 q-85 0 -139.5 -73t-87.5 -208l-168 -682q-117 -475 -260 -618q-131 -131 -287 -131q-69 0 -110 33t-41 88z" />
<glyph unicode="&#xe0;" horiz-adv-x="1216" d="M80 260q0 60 17 131t50 145.5t85.5 143t117.5 123t153.5 87t186.5 32.5q160 0 266 -115l50 84h143l-205 -653q-12 -37 -7.5 -66t24.5 -29q38 0 106 105h98q-63 -126 -141 -193q-88 -82 -197 -82q-75 0 -116 55t-43 152q-170 -207 -351 -207q-104 0 -170.5 80.5 t-66.5 206.5zM369 330q0 -69 29 -113.5t75 -44.5q58 0 118 53t104 130.5t72 168.5t28 166q0 56 -31 90.5t-80 34.5q-57 0 -109 -35.5t-88.5 -90.5t-63.5 -121t-40.5 -128t-13.5 -110zM518 1384h295l107 -344h-78z" />
<glyph unicode="&#xe1;" horiz-adv-x="1216" d="M80 260q0 60 17 131t50 145.5t85.5 143t117.5 123t153.5 87t186.5 32.5q160 0 266 -115l50 84h143l-205 -653q-12 -37 -7.5 -66t24.5 -29q38 0 106 105h98q-63 -126 -141 -193q-88 -82 -197 -82q-75 0 -116 55t-43 152q-170 -207 -351 -207q-104 0 -170.5 80.5 t-66.5 206.5zM369 330q0 -69 29 -113.5t75 -44.5q58 0 118 53t104 130.5t72 168.5t28 166q0 56 -31 90.5t-80 34.5q-57 0 -109 -35.5t-88.5 -90.5t-63.5 -121t-40.5 -128t-13.5 -110zM709 1040l106 344h295l-324 -344h-77z" />
<glyph unicode="&#xe2;" horiz-adv-x="1216" d="M80 260q0 60 17 131t50 145.5t85.5 143t117.5 123t153.5 87t186.5 32.5q160 0 266 -115l50 84h143l-205 -653q-12 -37 -7.5 -66t24.5 -29q38 0 106 105h98q-63 -126 -141 -193q-88 -82 -197 -82q-75 0 -116 55t-43 152q-170 -207 -351 -207q-104 0 -170.5 80.5 t-66.5 206.5zM369 330q0 -69 29 -113.5t75 -44.5q58 0 118 53t104 130.5t72 168.5t28 166q0 56 -31 90.5t-80 34.5q-57 0 -109 -35.5t-88.5 -90.5t-63.5 -121t-40.5 -128t-13.5 -110zM453 1047l307 339h225l102 -339h-102l-133 202l-293 -202h-106z" />
<glyph unicode="&#xe3;" horiz-adv-x="1216" d="M80 260q0 60 17 131t50 145.5t85.5 143t117.5 123t153.5 87t186.5 32.5q160 0 266 -115l50 84h143l-205 -653q-12 -37 -7.5 -66t24.5 -29q38 0 106 105h98q-63 -126 -141 -193q-88 -82 -197 -82q-75 0 -116 55t-43 152q-170 -207 -351 -207q-104 0 -170.5 80.5 t-66.5 206.5zM369 330q0 -69 29 -113.5t75 -44.5q58 0 118 53t104 130.5t72 168.5t28 166q0 56 -31 90.5t-80 34.5q-57 0 -109 -35.5t-88.5 -90.5t-63.5 -121t-40.5 -128t-13.5 -110zM500 1079q0 124 61 201q57 76 139 76q52 0 112.5 -22.5t109 -45t71.5 -22.5q64 0 78 90 h62q3 -121 -53.5 -199t-139.5 -78q-48 0 -107.5 23t-110.5 46t-79 23q-63 0 -78 -92h-65z" />
<glyph unicode="&#xe4;" horiz-adv-x="1216" d="M80 260q0 60 17 131t50 145.5t85.5 143t117.5 123t153.5 87t186.5 32.5q160 0 266 -115l50 84h143l-205 -653q-12 -37 -7.5 -66t24.5 -29q38 0 106 105h98q-63 -126 -141 -193q-88 -82 -197 -82q-75 0 -116 55t-43 152q-170 -207 -351 -207q-104 0 -170.5 80.5 t-66.5 206.5zM369 330q0 -69 29 -113.5t75 -44.5q58 0 118 53t104 130.5t72 168.5t28 166q0 56 -31 90.5t-80 34.5q-57 0 -109 -35.5t-88.5 -90.5t-63.5 -121t-40.5 -128t-13.5 -110zM489 1192q0 60 43 102.5t103 42.5t102.5 -42.5t42.5 -102.5t-42.5 -102.5t-102.5 -42.5 t-103 42.5t-43 102.5zM856 1192q0 60 42.5 102.5t102.5 42.5t103 -42.5t43 -102.5t-43 -102.5t-103 -42.5t-102.5 42.5t-42.5 102.5z" />
<glyph unicode="&#xe5;" horiz-adv-x="1216" d="M80 260q0 60 17 131t50 145.5t85.5 143t117.5 123t153.5 87t186.5 32.5q160 0 266 -115l50 84h143l-205 -653q-12 -37 -7.5 -66t24.5 -29q38 0 106 105h98q-63 -126 -141 -193q-88 -82 -197 -82q-75 0 -116 55t-43 152q-170 -207 -351 -207q-104 0 -170.5 80.5 t-66.5 206.5zM369 330q0 -69 29 -113.5t75 -44.5q58 0 118 53t104 130.5t72 168.5t28 166q0 56 -31 90.5t-80 34.5q-57 0 -109 -35.5t-88.5 -90.5t-63.5 -121t-40.5 -128t-13.5 -110zM614 1219q0 86 60.5 146t146.5 60q87 0 148 -60t61 -146t-61.5 -147.5t-147.5 -61.5 t-146.5 61.5t-60.5 147.5zM688 1219q0 -56 39 -96t94 -40t95 40t40 96q0 55 -39.5 94t-95.5 39q-55 0 -94 -39t-39 -94z" />
<glyph unicode="&#xe6;" horiz-adv-x="1642" d="M51 258q0 89 39 188t129 189q55 55 122.5 96t172.5 79t259.5 60.5t354.5 28.5q30 1 130 12t135 11q101 0 153.5 -42t52.5 -124q0 -166 -154 -273t-454 -143q6 -93 63.5 -153t141.5 -60q67 0 136 33.5t122 91.5h105q-19 -37 -60.5 -81.5t-104 -91t-153 -77.5t-186.5 -31 q-133 0 -221.5 52t-110.5 143q-75 -94 -170 -143.5t-201 -49.5q-137 0 -219 77.5t-82 207.5zM344 301q0 -69 42.5 -113.5t107.5 -44.5q52 0 115 40.5t100 97.5q3 136 104.5 275.5t269.5 242.5l-4 4q-432 -37 -600 -205q-65 -65 -100 -146t-35 -151zM1001 422q107 12 190 45 t130 75.5t70.5 86.5t23.5 86q0 41 -30.5 67.5t-77.5 26.5q-108 0 -188 -109.5t-118 -277.5z" />
<glyph unicode="&#xe7;" horiz-adv-x="1024" d="M0 -385l10 35q113 -17 154 -17q81 0 133.5 32.5t52.5 82.5q0 47 -44.5 76t-131.5 8l-18 33l192 117q-131 22 -205.5 113t-74.5 231q0 87 27 172t82 161.5t130.5 135t180.5 93t225 34.5q78 0 137 -17.5t92.5 -46.5t49.5 -61.5t16 -65.5q0 -54 -35 -88.5t-88 -34.5 q-111 0 -123 109q-6 59 -20.5 78.5t-61.5 19.5q-79 0 -154 -60t-121.5 -158t-46.5 -202q0 -111 65 -181.5t167 -70.5q56 0 119 28t106 71h143q-231 -266 -520 -269l-49 -28v-4q103 -4 159 -53.5t56 -114.5q0 -89 -93.5 -140t-256.5 -51q-148 0 -254 33z" />
<glyph unicode="&#xe8;" horiz-adv-x="1044" d="M57 289q0 155 101 302.5t264.5 239t335.5 91.5q109 0 177.5 -58.5t68.5 -150.5q0 -163 -178.5 -269.5t-469.5 -115.5q0 -85 55 -142t138 -57q73 0 158 35t129 88h137q-111 -136 -241.5 -207.5t-301.5 -71.5q-186 0 -279.5 88.5t-93.5 227.5zM360 428q203 19 321 94 t118 187q0 43 -34.5 74.5t-80.5 31.5q-84 0 -157.5 -61t-116 -149t-50.5 -177zM473 1384h295l106 -344h-77z" />
<glyph unicode="&#xe9;" horiz-adv-x="1044" d="M57 289q0 155 101 302.5t264.5 239t335.5 91.5q109 0 177.5 -58.5t68.5 -150.5q0 -163 -178.5 -269.5t-469.5 -115.5q0 -85 55 -142t138 -57q73 0 158 35t129 88h137q-111 -136 -241.5 -207.5t-301.5 -71.5q-186 0 -279.5 88.5t-93.5 227.5zM360 428q203 19 321 94 t118 187q0 43 -34.5 74.5t-80.5 31.5q-84 0 -157.5 -61t-116 -149t-50.5 -177zM623 1040l106 344h295l-324 -344h-77z" />
<glyph unicode="&#xea;" horiz-adv-x="1044" d="M57 289q0 155 101 302.5t264.5 239t335.5 91.5q109 0 177.5 -58.5t68.5 -150.5q0 -163 -178.5 -269.5t-469.5 -115.5q0 -85 55 -142t138 -57q73 0 158 35t129 88h137q-111 -136 -241.5 -207.5t-301.5 -71.5q-186 0 -279.5 88.5t-93.5 227.5zM360 428q203 19 321 94 t118 187q0 43 -34.5 74.5t-80.5 31.5q-84 0 -157.5 -61t-116 -149t-50.5 -177zM367 1047l307 339h225l102 -339h-102l-133 202l-293 -202h-106z" />
<glyph unicode="&#xeb;" horiz-adv-x="1044" d="M57 289q0 155 101 302.5t264.5 239t335.5 91.5q109 0 177.5 -58.5t68.5 -150.5q0 -163 -178.5 -269.5t-469.5 -115.5q0 -85 55 -142t138 -57q73 0 158 35t129 88h137q-111 -136 -241.5 -207.5t-301.5 -71.5q-186 0 -279.5 88.5t-93.5 227.5zM360 428q203 19 321 94 t118 187q0 43 -34.5 74.5t-80.5 31.5q-84 0 -157.5 -61t-116 -149t-50.5 -177zM403 1192q0 60 43 102.5t103 42.5t102.5 -42.5t42.5 -102.5t-42.5 -102.5t-102.5 -42.5t-103 42.5t-43 102.5zM770 1192q0 60 42.5 102.5t102.5 42.5t103 -42.5t43 -102.5t-43 -102.5 t-103 -42.5t-102.5 42.5t-42.5 102.5z" />
<glyph unicode="&#xec;" d="M29 633q63 132 168 210.5t219 78.5q106 0 144 -85t-13 -212l-146 -371q-43 -111 13 -111q27 0 73 43t76 84h90q-182 -297 -415 -297q-99 0 -135 65t6 175l186 483q11 31 2.5 50.5t-29.5 19.5q-32 0 -64.5 -30.5t-78.5 -102.5h-96zM291 1384h295l106 -344h-78z" />
<glyph unicode="&#xed;" d="M29 633q63 132 168 210.5t219 78.5q106 0 144 -85t-13 -212l-146 -371q-43 -111 13 -111q27 0 73 43t76 84h90q-182 -297 -415 -297q-99 0 -135 65t6 175l186 483q11 31 2.5 50.5t-29.5 19.5q-32 0 -64.5 -30.5t-78.5 -102.5h-96zM440 1040l107 344h295l-324 -344h-78z " />
<glyph unicode="&#xee;" d="M29 633q63 132 168 210.5t219 78.5q106 0 144 -85t-13 -212l-146 -371q-43 -111 13 -111q27 0 73 43t76 84h90q-182 -297 -415 -297q-99 0 -135 65t6 175l186 483q11 31 2.5 50.5t-29.5 19.5q-32 0 -64.5 -30.5t-78.5 -102.5h-96zM184 1047l308 339h225l102 -339h-102 l-133 202l-293 -202h-107z" />
<glyph unicode="&#xef;" d="M29 633q63 132 168 210.5t219 78.5q106 0 144 -85t-13 -212l-146 -371q-43 -111 13 -111q27 0 73 43t76 84h90q-182 -297 -415 -297q-99 0 -135 65t6 175l186 483q11 31 2.5 50.5t-29.5 19.5q-32 0 -64.5 -30.5t-78.5 -102.5h-96zM221 1192q0 60 43 102.5t103 42.5 t102.5 -42.5t42.5 -102.5t-42.5 -102.5t-102.5 -42.5t-103 42.5t-43 102.5zM588 1192q0 60 42.5 102.5t102.5 42.5t103 -42.5t43 -102.5t-43 -102.5t-103 -42.5t-102.5 42.5t-42.5 102.5z" />
<glyph unicode="&#xf0;" horiz-adv-x="1198" d="M86 362q0 110 49 213.5t129.5 179t189.5 121.5t224 46q100 0 182 -43q9 105 -29 241l-192 -84l-37 86l203 88q-40 103 -92 168l106 47q86 -61 142 -147l215 94l36 -86l-202 -88q66 -123 99.5 -267.5t33.5 -252.5q0 -158 -39 -284t-100 -203t-142.5 -128t-160.5 -70.5 t-160 -19.5q-194 0 -324.5 111.5t-130.5 277.5zM369 272q0 -92 43.5 -147t117.5 -55q83 0 146 63q65 65 116.5 231.5t51.5 241.5q0 91 -45 150t-117 59q-70 0 -127.5 -49.5t-90.5 -119t-56 -150t-31 -137.5t-8 -87z" />
<glyph unicode="&#xf1;" horiz-adv-x="1300" d="M35 643q71 130 176.5 204.5t220.5 74.5q64 0 99.5 -33.5t35.5 -93.5q0 -97 -75 -293l4 -4q58 114 126 199t135.5 132.5t130.5 70t124 22.5q82 0 130 -47t48 -127q0 -57 -33 -150l-139 -369q-14 -37 -7.5 -61.5t33.5 -24.5q25 0 64 33.5t74 85.5h86q-69 -127 -178.5 -208 t-212.5 -81q-95 0 -129.5 76.5t12.5 212.5l158 424q14 35 3.5 65.5t-36.5 30.5q-70 0 -183 -131t-213.5 -315t-142.5 -336h-276l211 690q10 31 5 53.5t-24 22.5q-57 0 -127 -123h-100zM541 1079q0 124 61 201q57 76 139 76q52 0 112.5 -22.5t109 -45t71.5 -22.5q64 0 78 90 h62q3 -121 -53.5 -199t-139.5 -78q-48 0 -107.5 23t-110.5 46t-79 23q-63 0 -78 -92h-65z" />
<glyph unicode="&#xf2;" horiz-adv-x="1173" d="M74 375q0 75 24 151.5t73.5 147.5t118.5 126.5t166.5 88.5t209.5 33q198 0 321 -110.5t123 -287.5q0 -110 -44 -210.5t-120.5 -175.5t-187 -120t-236.5 -45q-103 0 -189.5 34.5t-142 92t-86 129t-30.5 146.5zM356 285q0 -95 48 -155t122 -60q68 0 123 46t87 112.5 t53.5 147t29.5 142.5t8 105q0 95 -41.5 148.5t-117.5 53.5q-59 0 -111 -40t-87.5 -101.5t-62 -135t-39 -142t-12.5 -121.5zM537 1384h294l107 -344h-78z" />
<glyph unicode="&#xf3;" horiz-adv-x="1173" d="M74 375q0 75 24 151.5t73.5 147.5t118.5 126.5t166.5 88.5t209.5 33q198 0 321 -110.5t123 -287.5q0 -110 -44 -210.5t-120.5 -175.5t-187 -120t-236.5 -45q-103 0 -189.5 34.5t-142 92t-86 129t-30.5 146.5zM356 285q0 -95 48 -155t122 -60q68 0 123 46t87 112.5 t53.5 147t29.5 142.5t8 105q0 95 -41.5 148.5t-117.5 53.5q-59 0 -111 -40t-87.5 -101.5t-62 -135t-39 -142t-12.5 -121.5zM686 1040l107 344h294l-323 -344h-78z" />
<glyph unicode="&#xf4;" horiz-adv-x="1173" d="M74 375q0 75 24 151.5t73.5 147.5t118.5 126.5t166.5 88.5t209.5 33q198 0 321 -110.5t123 -287.5q0 -110 -44 -210.5t-120.5 -175.5t-187 -120t-236.5 -45q-103 0 -189.5 34.5t-142 92t-86 129t-30.5 146.5zM356 285q0 -95 48 -155t122 -60q68 0 123 46t87 112.5 t53.5 147t29.5 142.5t8 105q0 95 -41.5 148.5t-117.5 53.5q-59 0 -111 -40t-87.5 -101.5t-62 -135t-39 -142t-12.5 -121.5zM430 1047l307 339h226l102 -339h-102l-134 202l-292 -202h-107z" />
<glyph unicode="&#xf5;" horiz-adv-x="1173" d="M74 375q0 75 24 151.5t73.5 147.5t118.5 126.5t166.5 88.5t209.5 33q198 0 321 -110.5t123 -287.5q0 -110 -44 -210.5t-120.5 -175.5t-187 -120t-236.5 -45q-103 0 -189.5 34.5t-142 92t-86 129t-30.5 146.5zM356 285q0 -95 48 -155t122 -60q68 0 123 46t87 112.5 t53.5 147t29.5 142.5t8 105q0 95 -41.5 148.5t-117.5 53.5q-59 0 -111 -40t-87.5 -101.5t-62 -135t-39 -142t-12.5 -121.5zM477 1079q0 122 62 201q57 76 139 76q52 0 112.5 -22.5t109 -45t71.5 -22.5q64 0 78 90h61q3 -121 -53 -199t-139 -78q-48 0 -107.5 23t-110.5 46 t-79 23q-63 0 -78 -92h-66z" />
<glyph unicode="&#xf6;" horiz-adv-x="1173" d="M74 375q0 75 24 151.5t73.5 147.5t118.5 126.5t166.5 88.5t209.5 33q198 0 321 -110.5t123 -287.5q0 -110 -44 -210.5t-120.5 -175.5t-187 -120t-236.5 -45q-103 0 -189.5 34.5t-142 92t-86 129t-30.5 146.5zM356 285q0 -95 48 -155t122 -60q68 0 123 46t87 112.5 t53.5 147t29.5 142.5t8 105q0 95 -41.5 148.5t-117.5 53.5q-59 0 -111 -40t-87.5 -101.5t-62 -135t-39 -142t-12.5 -121.5zM467 1192q0 60 42.5 102.5t102.5 42.5t103 -42.5t43 -102.5t-43 -102.5t-103 -42.5t-102.5 42.5t-42.5 102.5zM834 1192q0 60 42.5 102.5t102.5 42.5 t102.5 -42.5t42.5 -102.5t-42.5 -102.5t-102.5 -42.5t-102.5 42.5t-42.5 102.5z" />
<glyph unicode="&#xf7;" horiz-adv-x="1368" d="M203 571v205h1110v-205h-1110zM633 254q0 52 36.5 88.5t88.5 36.5t88.5 -36.5t36.5 -88.5t-36.5 -88.5t-88.5 -36.5t-88.5 36.5t-36.5 88.5zM633 1094q0 52 36.5 88.5t88.5 36.5t88.5 -36.5t36.5 -88.5t-36.5 -88.5t-88.5 -36.5t-88.5 36.5t-36.5 88.5z" />
<glyph unicode="&#xf8;" horiz-adv-x="1173" d="M74 375q0 75 24 151.5t73.5 147.5t118.5 126.5t166.5 88.5t209.5 33q144 0 256 -64l77 80l74 -61l-76 -78q52 -42 82.5 -118t30.5 -157q0 -110 -44 -210.5t-120.5 -175.5t-187 -120t-236.5 -45q-152 0 -258 70l-90 -92l-72 63l86 88q-114 114 -114 273zM356 276l453 465 q-28 41 -60 62.5t-81 21.5q-59 0 -111 -39.5t-88 -101t-62 -136t-38.5 -145t-12.5 -127.5zM383 166q15 -40 55.5 -68t87.5 -28q68 0 123 46t87 112.5t53.5 147t29.5 142.5t8 105z" />
<glyph unicode="&#xf9;" horiz-adv-x="1300" d="M29 631q56 132 159 211.5t220 79.5q70 0 106.5 -40.5t36.5 -115.5q0 -70 -37 -174l-121 -344q-18 -52 -7.5 -85.5t40.5 -33.5q70 0 157 95.5t158 226t124 254.5t69 194h280l-206 -678q-26 -92 14 -92q26 0 72 49t84 113h84q-75 -149 -180.5 -233.5t-215.5 -84.5 q-89 0 -126 60.5t-7 159.5l64 202l-4 4q-113 -217 -242.5 -321.5t-261.5 -104.5q-111 0 -157.5 88.5t5.5 245.5l137 379q8 22 9 40t-7 29t-26 11q-28 0 -71 -44.5t-60 -90.5h-90zM559 1384h295l107 -344h-78z" />
<glyph unicode="&#xfa;" horiz-adv-x="1300" d="M29 631q56 132 159 211.5t220 79.5q70 0 106.5 -40.5t36.5 -115.5q0 -70 -37 -174l-121 -344q-18 -52 -7.5 -85.5t40.5 -33.5q70 0 157 95.5t158 226t124 254.5t69 194h280l-206 -678q-26 -92 14 -92q26 0 72 49t84 113h84q-75 -149 -180.5 -233.5t-215.5 -84.5 q-89 0 -126 60.5t-7 159.5l64 202l-4 4q-113 -217 -242.5 -321.5t-261.5 -104.5q-111 0 -157.5 88.5t5.5 245.5l137 379q8 22 9 40t-7 29t-26 11q-28 0 -71 -44.5t-60 -90.5h-90zM750 1040l106 344h295l-324 -344h-77z" />
<glyph unicode="&#xfb;" horiz-adv-x="1300" d="M29 631q56 132 159 211.5t220 79.5q70 0 106.5 -40.5t36.5 -115.5q0 -70 -37 -174l-121 -344q-18 -52 -7.5 -85.5t40.5 -33.5q70 0 157 95.5t158 226t124 254.5t69 194h280l-206 -678q-26 -92 14 -92q26 0 72 49t84 113h84q-75 -149 -180.5 -233.5t-215.5 -84.5 q-89 0 -126 60.5t-7 159.5l64 202l-4 4q-113 -217 -242.5 -321.5t-261.5 -104.5q-111 0 -157.5 88.5t5.5 245.5l137 379q8 22 9 40t-7 29t-26 11q-28 0 -71 -44.5t-60 -90.5h-90zM494 1047l307 339h225l102 -339h-102l-133 202l-293 -202h-106z" />
<glyph unicode="&#xfc;" horiz-adv-x="1300" d="M29 631q56 132 159 211.5t220 79.5q70 0 106.5 -40.5t36.5 -115.5q0 -70 -37 -174l-121 -344q-18 -52 -7.5 -85.5t40.5 -33.5q70 0 157 95.5t158 226t124 254.5t69 194h280l-206 -678q-26 -92 14 -92q26 0 72 49t84 113h84q-75 -149 -180.5 -233.5t-215.5 -84.5 q-89 0 -126 60.5t-7 159.5l64 202l-4 4q-113 -217 -242.5 -321.5t-261.5 -104.5q-111 0 -157.5 88.5t5.5 245.5l137 379q8 22 9 40t-7 29t-26 11q-28 0 -71 -44.5t-60 -90.5h-90zM530 1192q0 60 43 102.5t103 42.5t102.5 -42.5t42.5 -102.5t-42.5 -102.5t-102.5 -42.5 t-103 42.5t-43 102.5zM897 1192q0 60 42.5 102.5t102.5 42.5t103 -42.5t43 -102.5t-43 -102.5t-103 -42.5t-102.5 42.5t-42.5 102.5z" />
<glyph unicode="&#xfd;" horiz-adv-x="1130" d="M-199 -256q0 57 43.5 97t102.5 40q45 0 115.5 -43t121.5 -43q93 0 244 160l-172 696q-16 63 -21.5 75.5t-19.5 12.5q-49 0 -94 -133h-96q60 166 134 241t177 75q81 0 118 -42t62 -141l141 -557q82 85 127 169t45 153q0 37 -17 131.5t-17 132.5q0 69 38.5 111.5 t102.5 42.5q69 0 113.5 -49.5t44.5 -127.5q0 -64 -25.5 -135t-91.5 -172q-156 -240 -356 -442q-171 -171 -316 -272q-90 -63 -161.5 -90t-155.5 -27q-85 0 -136 37t-51 100zM625 1040l106 344h295l-324 -344h-77z" />
<glyph unicode="&#xfe;" horiz-adv-x="1259" d="M-174 -385l31 96q106 3 148 32t65 105l376 1317q7 22 8.5 36.5t-2.5 31.5t-23 26t-52 9h-82l29 94q216 3 411 63h60l-144 -522q26 6 68 12q47 7 80 7q189 0 299 -97.5t110 -263.5q0 -42 -8 -88t-32 -105t-61.5 -112.5t-101.5 -106.5t-146.5 -91.5t-203 -62.5t-264.5 -24 l-41 -135q-20 -66 12 -95.5t117 -29.5h41l-31 -96h-663zM418 61q85 0 157.5 18.5t122 48.5t89 71t62.5 83.5t38 89t20.5 84t5.5 72.5q0 27 -4 55.5t-18.5 67.5t-38 68.5t-68.5 50.5t-104 21q-11 0 -34.5 -2.5t-29.5 -2.5z" />
<glyph unicode="&#xff;" horiz-adv-x="1130" d="M-199 -256q0 57 43.5 97t102.5 40q45 0 115.5 -43t121.5 -43q93 0 244 160l-172 696q-16 63 -21.5 75.5t-19.5 12.5q-49 0 -94 -133h-96q60 166 134 241t177 75q81 0 118 -42t62 -141l141 -557q82 85 127 169t45 153q0 37 -17 131.5t-17 132.5q0 69 38.5 111.5 t102.5 42.5q69 0 113.5 -49.5t44.5 -127.5q0 -64 -25.5 -135t-91.5 -172q-156 -240 -356 -442q-171 -171 -316 -272q-90 -63 -161.5 -90t-155.5 -27q-85 0 -136 37t-51 100zM406 1192q0 60 42.5 102.5t102.5 42.5t102.5 -42.5t42.5 -102.5t-42.5 -102.5t-102.5 -42.5 t-102.5 42.5t-42.5 102.5zM772 1192q0 60 43 102.5t103 42.5t102.5 -42.5t42.5 -102.5t-42.5 -102.5t-102.5 -42.5t-103 42.5t-43 102.5z" />
<glyph unicode="&#x152;" horiz-adv-x="2217" d="M172 559q0 163 68 317.5t180 268.5t263 183t310 69h1305l-70 -318h-106q-24 221 -275 221h-493v-4q130 -63 199 -197t69 -319h98q102 0 155 32.5t114 133.5h110l-121 -454h-110q-24 117 -61.5 154.5t-123.5 37.5h-71q-21 -81 -44 -140t-59 -121.5t-85 -114t-121 -104 t-168 -104.5v-4h362q74 0 138.5 11.5t132.5 39.5t131 81.5t116 131.5h146l-154 -360h-1317q-145 0 -264 73t-186.5 201.5t-67.5 284.5zM526 426q0 -155 72.5 -239.5t210.5 -84.5q88 0 166.5 64t132.5 163.5t93.5 219.5t58 233.5t18.5 204.5q0 140 -63 221.5t-175 81.5 q-81 0 -151.5 -36t-121.5 -95t-93 -136.5t-69 -159t-45.5 -165t-26 -151.5t-7.5 -121z" />
<glyph unicode="&#x153;" horiz-adv-x="1728" d="M68 373q0 75 23 151t71 147.5t115.5 127.5t165 89.5t210.5 33.5q239 0 365 -168q186 168 430 168q71 0 121.5 -17t74.5 -45t34 -54.5t10 -55.5q0 -83 -52 -154.5t-139.5 -121.5t-194 -84t-223.5 -50q5 -94 66 -152.5t155 -58.5q78 0 143 30.5t99 82.5h96 q-64 -127 -187 -198t-273 -71q-204 0 -287 148q-72 -71 -171.5 -109.5t-209.5 -38.5q-96 0 -173.5 24.5t-126.5 64t-82 92.5t-46.5 107.5t-13.5 111.5zM360 317q0 -127 45.5 -187t139.5 -60q69 0 122 37t82.5 91.5t48 129t24 136.5t5.5 126q0 107 -48 166t-134 59 q-76 0 -133 -45t-89 -119.5t-47.5 -159t-15.5 -174.5zM1085 426q207 31 308.5 104t101.5 175q0 46 -32 75t-83 29q-106 0 -183 -99.5t-112 -283.5z" />
<glyph unicode="&#x178;" horiz-adv-x="1386" d="M248 1300l14 97h590l-14 -97q-85 -27 -104.5 -75.5t9.5 -130.5l140 -484l342 461q38 52 48.5 96t-12.5 79.5t-83 53.5l14 97h428l-14 -97q-21 -2 -38 -9.5t-37.5 -27.5t-29 -29.5t-35.5 -44.5t-34 -44l-498 -615l-49 -188q-30 -117 2 -176t123 -70l-19 -96h-702l16 96 q163 18 225 246l45 166l-165 559q-37 128 -70.5 174.5t-91.5 58.5zM694 1690q0 60 43 102.5t103 42.5t102.5 -42.5t42.5 -102.5t-42.5 -103t-102.5 -43t-103 43t-43 103zM1061 1690q0 60 42.5 102.5t102.5 42.5t103 -42.5t43 -102.5t-43 -103t-103 -43t-102.5 43t-42.5 103z " />
<glyph unicode="&#x2c6;" d="M184 1047l308 339h225l102 -339h-102l-133 202l-293 -202h-107z" />
<glyph unicode="&#x2dc;" d="M231 1079q0 122 62 201q57 76 139 76q52 0 112.5 -22.5t109 -45t71.5 -22.5q64 0 78 90h61q3 -121 -53 -199t-139 -78q-48 0 -107.5 23t-110.5 46t-79 23q-63 0 -78 -92h-66z" />
<glyph unicode="&#x2000;" horiz-adv-x="961" />
<glyph unicode="&#x2001;" horiz-adv-x="1923" />
<glyph unicode="&#x2002;" horiz-adv-x="961" />
<glyph unicode="&#x2003;" horiz-adv-x="1923" />
<glyph unicode="&#x2004;" horiz-adv-x="641" />
<glyph unicode="&#x2005;" horiz-adv-x="480" />
<glyph unicode="&#x2006;" horiz-adv-x="320" />
<glyph unicode="&#x2007;" horiz-adv-x="320" />
<glyph unicode="&#x2008;" horiz-adv-x="240" />
<glyph unicode="&#x2009;" horiz-adv-x="384" />
<glyph unicode="&#x200a;" horiz-adv-x="106" />
<glyph unicode="&#x2010;" horiz-adv-x="937" d="M82 324l78 251h692l-78 -251h-692z" />
<glyph unicode="&#x2011;" horiz-adv-x="937" d="M82 324l78 251h692l-78 -251h-692z" />
<glyph unicode="&#x2012;" horiz-adv-x="937" d="M82 324l78 251h692l-78 -251h-692z" />
<glyph unicode="&#x2013;" horiz-adv-x="1024" d="M18 387v250h1049v-250h-1049z" />
<glyph unicode="&#x2014;" horiz-adv-x="2048" d="M18 387v250h2073v-250h-2073z" />
<glyph unicode="&#x2018;" horiz-adv-x="747" d="M453 1034q0 90 43 166t110.5 124t145.5 74.5t153 26.5l-16 -94q-99 -14 -172.5 -59t-73.5 -98q0 -24 14.5 -44.5t35.5 -36.5t41.5 -33.5t35 -44t14.5 -59.5q0 -61 -40 -103t-105 -42q-79 0 -132.5 59.5t-53.5 163.5z" />
<glyph unicode="&#x2019;" horiz-adv-x="747" d="M184 811l17 94q99 14 172 59.5t73 98.5q0 24 -14.5 44.5t-35 36.5t-41.5 33t-35.5 43.5t-14.5 59.5q0 61 40 103t106 42q79 0 132.5 -59.5t53.5 -163.5q0 -72 -28.5 -136t-75 -110t-105.5 -79t-122 -49.5t-122 -16.5z" />
<glyph unicode="&#x201a;" d="M6 -309l17 94q99 14 172 59.5t73 98.5q0 24 -14.5 44.5t-35 36.5t-41.5 33t-35.5 43.5t-14.5 59.5q0 61 40 103t105 42q79 0 133 -59.5t54 -163.5q0 -72 -28.5 -136t-75 -110t-105.5 -79t-122 -49.5t-122 -16.5z" />
<glyph unicode="&#x201c;" horiz-adv-x="1236" d="M471 1034q0 72 28.5 136t75 110t105.5 79t122 49.5t122 16.5l-17 -94q-99 -14 -172 -59t-73 -98q0 -24 14.5 -44.5t35 -36.5t41.5 -33.5t35.5 -44t14.5 -59.5q0 -61 -40 -103t-106 -42q-79 0 -132.5 59.5t-53.5 163.5zM942 1034q0 72 28.5 136t75 110t105.5 79t122 49.5 t122 16.5l-17 -94q-99 -14 -172 -59t-73 -98q0 -24 14.5 -44.5t35.5 -36.5t41.5 -33.5t35 -44t14.5 -59.5q0 -61 -40 -103t-106 -42q-79 0 -132.5 59.5t-53.5 163.5z" />
<glyph unicode="&#x201d;" horiz-adv-x="1236" d="M213 811l16 94q99 14 172.5 59.5t73.5 98.5q0 24 -14.5 44.5t-35.5 36.5t-41.5 33t-35 43.5t-14.5 59.5q0 61 40 103t105 42q79 0 133 -59.5t54 -163.5q0 -72 -28.5 -136t-75 -110t-105.5 -79t-122 -49.5t-122 -16.5zM684 811l16 94q99 14 172.5 59.5t73.5 98.5 q0 24 -14.5 44.5t-35 36.5t-41.5 33t-35.5 43.5t-14.5 59.5q0 61 40 103t105 42q79 0 133 -59.5t54 -163.5q0 -72 -28.5 -136t-75 -110t-105.5 -79t-122 -49.5t-122 -16.5z" />
<glyph unicode="&#x201e;" horiz-adv-x="1236" d="M47 -309l16 94q99 14 172.5 59.5t73.5 98.5q0 24 -14.5 44.5t-35.5 36.5t-41.5 33t-35 43.5t-14.5 59.5q0 61 40 103t105 42q79 0 133 -59.5t54 -163.5q0 -72 -28.5 -136t-75 -110t-105.5 -79t-122 -49.5t-122 -16.5zM518 -309l17 94q99 14 172 59.5t73 98.5 q0 24 -14.5 44.5t-35 36.5t-41.5 33t-35.5 43.5t-14.5 59.5q0 61 40 103t105 42q79 0 133 -59.5t54 -163.5q0 -72 -28.5 -136t-75 -110t-105.5 -79t-122 -49.5t-122 -16.5z" />
<glyph unicode="&#x2022;" horiz-adv-x="716" d="M147 678q0 118 83.5 201.5t201.5 83.5q119 0 203 -83.5t84 -201.5t-84.5 -202.5t-202.5 -84.5t-201.5 84t-83.5 203z" />
<glyph unicode="&#x2026;" horiz-adv-x="2048" d="M154 170q0 78 54 132t132 54t133 -54t55 -132t-55 -133t-133 -55t-132 55t-54 133zM838 170q0 78 54 132t132 54t133 -54t55 -132t-55 -133t-133 -55t-132 55t-54 133zM1522 170q0 78 54 132t132 54t133 -54t55 -132t-55 -133t-133 -55t-132 55t-54 133z" />
<glyph unicode="&#x202f;" horiz-adv-x="384" />
<glyph unicode="&#x2039;" horiz-adv-x="636" d="M145 539q132 157 203 266l94 143l7 10h229q-45 -82 -168 -247q-77 -102 -143 -172l4 -15l32 -137q42 -183 60 -315h-201l-2 12l-27 125q-36 159 -65 254q-6 23 -23 76z" />
<glyph unicode="&#x203a;" horiz-adv-x="636" d="M-2 72q49 88 170 247q94 123 141 173l-4 14q-9 31 -16.5 58.5t-12 45.5t-10 45t-7.5 38t-8.5 46t-8.5 49q-17 87 -29 170h201l2 -12l26 -127q22 -101 66 -252q18 -60 24 -75q-41 -46 -105.5 -130.5t-98.5 -136.5l-95 -143l-6 -10h-229z" />
<glyph unicode="&#x205f;" horiz-adv-x="480" />
<glyph unicode="&#x20ac;" horiz-adv-x="1110" d="M43 483l39 140h96q5 46 19 112h-129l38 139h132q81 219 237.5 355.5t351.5 136.5q102 0 199.5 -34.5t171.5 -102.5l-47 -258h-82q0 127 -60.5 215t-166.5 88q-77 0 -143.5 -56.5t-111.5 -143t-77 -200.5h543l-39 -139h-537q-13 -85 -16 -112h530l-39 -140h-499v-4 q0 -182 50.5 -291.5t151.5 -109.5q113 0 279 139l65 -80q-175 -166 -397 -166q-125 0 -222.5 70t-150 185.5t-57.5 256.5h-129z" />
<glyph unicode="&#x2122;" horiz-adv-x="2048" d="M-4 1130v228h770v-228h-33q-8 94 -52.5 134.5t-141.5 40.5h-35v-588q0 -40 2 -60t6 -36.5t17.5 -22.5t28.5 -9t48 -5v-35h-450v35q73 4 87.5 23t14.5 110v588h-33q-97 0 -142 -40.5t-54 -134.5h-33zM877 549v35q75 3 92.5 24t17.5 109v469q0 84 -17 108.5t-75 24.5h-18 v39h368l232 -498l227 498h348v-39q-65 0 -83.5 -23.5t-18.5 -109.5v-498q0 -53 21.5 -77t80.5 -27v-35h-461v35q73 0 93 23.5t20 109.5v502h-4l-314 -670h-24l-315 670h-5v-529q0 -62 24 -84t91 -22v-35h-280z" />
<glyph unicode="&#xe000;" horiz-adv-x="921" d="M0 0v922h922v-922h-922z" />
<glyph unicode="&#xfb01;" horiz-adv-x="1343" d="M-379 -248q0 49 35.5 81t91.5 32q38 0 63 -15.5t36 -38t19 -45t18 -38t26 -15.5q69 0 127 211l235 856h-188l20 107h205q56 193 193 330q102 102 228.5 155t264.5 53q154 0 255.5 -59t101.5 -149q0 -51 -35.5 -85t-89.5 -34q-27 0 -54.5 10t-39.5 22q-24 24 -32.5 61 t-9.5 63t-26 45.5t-82 19.5q-135 0 -244.5 -121.5t-144.5 -310.5h274q156 0 241.5 8.5t160.5 30.5h28l-225 -733q-8 -28 2 -39t27 -11q27 0 60 31.5t65 87.5h104q-68 -134 -171.5 -211.5t-217.5 -77.5q-102 0 -141 63.5t-4 176.5l139 455q19 60 2 86t-74 26h-303l-147 -534 q-86 -315 -235.5 -477t-352.5 -162q-94 0 -149.5 39.5t-55.5 105.5z" />
<glyph unicode="&#xfb02;" horiz-adv-x="1343" d="M-379 -248q0 47 37.5 80t91.5 33q37 0 61.5 -15.5t35 -38t18 -45t17.5 -38t26 -15.5q37 0 68.5 56t66.5 184l225 827h-184l20 107h203q102 261 281.5 399.5t419.5 138.5q88 0 198 -39q84 7 185 39h61l-377 -1220q-9 -32 -2 -47t27 -15q54 0 127 117h102 q-60 -128 -168.5 -207.5t-224.5 -79.5q-33 0 -64.5 11.5t-58.5 38.5t-33 70.5t11 107.5l178 579h-410l-137 -497q-51 -187 -118 -321t-144.5 -210t-159 -110.5t-174.5 -34.5t-149 39.5t-56 105.5zM590 887h411l97 305q2 65 -26 95t-91 30q-38 0 -75.5 -10.5t-83 -39.5 t-85.5 -75t-79.5 -124.5t-67.5 -180.5z" />
</font>
</defs>
</svg>
